<svg id="Layer_1" data-name="Layer 1" xmlns="http://www.w3.org/2000/svg" viewBox="0 0 601 282.19"><defs><style>.cls-1{fill:#009245;opacity:0.4;}.cls-2{opacity:0.7;}.cls-3{fill:#c1e9af;}.cls-4{fill:#e1d3ce;}.cls-5{fill:#fee97d;}.cls-6{fill:#fee45a;}.cls-7{fill:#b5adb6;}.cls-8{fill:#f9f3f1;}.cls-9{fill:#f3eae6;}.cls-10{fill:#a79ba7;}.cls-11{fill:#cdbfba;}.cls-12{fill:#8ac9fe;}.cls-13{fill:#60b7ff;}.cls-14{fill:#ade194;}.cls-15{fill:#0593fc;}.cls-16{fill:#80d261;}.cls-17{fill:#68ca44;}.cls-18{fill:#ace3fc;}.cls-19{fill:#86d6f2;}.cls-20{fill:#ccefff;}.cls-21{fill:#e6eef3;}.cls-22{fill:#cad3db;}.cls-23{opacity:0.5;}.cls-24{fill:gray;}.cls-25{fill:#e6e6e6;}.cls-26{fill:none;stroke:#666;stroke-linecap:square;stroke-miterlimit:1;stroke-width:2px;}.cls-27{opacity:0.85;}.cls-28{fill:#e19974;}.cls-29{fill:#d77f4a;}.cls-30{fill:#d9e7ec;}.cls-31{fill:#758190;}.cls-32{fill:#58616c;}.cls-33{fill:#acb3bc;}.cls-34{fill:#83b7f9;}.cls-35{fill:#b5d4fb;}.cls-36{fill:#b8b9b3;}.cls-37{fill:#f1f1f0;}.cls-38{fill:#f5b953;}.cls-39{fill:#96cc7f;}.cls-40{fill:#fff;}.cls-41{fill:#625d6b;}.cls-42{fill:#00a99d;}.cls-43{fill:#228473;}.cls-44{fill:#00a389;}.cls-45{fill:#ededee;}.cls-46{fill:#504b5a;}.cls-47{fill:#dcdbde;}.cls-48{fill:#ffb47d;}.cls-49{fill:#ff9164;}.cls-50{fill:#ff7d5a;}.cls-51{fill:#ff6464;}.cls-52{fill:#8d8a94;}.cls-53{fill:#a7a5ac;}.cls-54{fill:#b9b7bd;}.cls-55{fill:#87d7ff;}.cls-56{fill:#64bef0;}.cls-57{fill:#00aadc;}.cls-58,.cls-63{fill:#554e56;}.cls-58{stroke:#000;stroke-miterlimit:10;}.cls-59{fill:#d9edff;}.cls-60{fill:#b4dbff;}.cls-61{fill:#bbb0ba;}.cls-62{fill:#ab9faa;}.cls-64{fill:#8c808a;}.cls-65{fill:#7a6d79;}.cls-66{fill:#d8d1d7;}.cls-67{fill:#cac0c9;}.cls-68{fill:#ff6930;}.cls-69{fill:#ff5426;}.cls-70{fill:#bc3720;}.cls-71{fill:#3c88d1;}</style></defs><rect class="cls-1" y="254.19" width="601" height="28"/><g class="cls-2"><path class="cls-3" d="M512.92,251.8H483.64c1.12-2.31-2.17-152.32,1.17-153.44h28.11Z" transform="translate(0.65)"/><path class="cls-4" d="M533.22,44.59c-1,0-1.74-1.56-1.74-3.47.73-2.44-1.81-22.55,1.73-23.12,1,0,1.74,1.55,1.74,3.47C534.22,23.9,536.76,44,533.22,44.59Z" transform="translate(0.65)"/><path class="cls-5" d="M598.63,251.8H568.69v-123h28.77c3.27,1,.1,120.79,1.17,123Z" transform="translate(0.65)"/><path class="cls-6" d="M598.63,131.18V251.8h-4.69c-1.12-2.33,2.2-121.88-1.18-123C594.64,129.17,599,127.47,598.63,131.18Z" transform="translate(0.65)"/><path class="cls-7" d="M549.17,48.73v4.53H517.26c.63-1.67-1.35-19.46,1.18-19.76.19,0,29.5,0,29.66,0,2.19.59.61,13.57,1.06,15.21Z" transform="translate(0.65)"/><path class="cls-4" d="M555.19,51.1V251.8h-44c1.14-2.32-2.19-201.93,1.17-203.07C513.85,50.16,557.18,45.57,555.19,51.1Z" transform="translate(0.65)"/><path class="cls-8" d="M537,232.35H523.09c-2.76-4-2.77-160.17,0-164.17,0,0,13.91,0,13.91,0C539.76,72.21,539.77,228.34,537,232.35Z" transform="translate(0.65)"/><path class="cls-9" d="M538.46,71.21V229.32c.36,4.35-3.83,2.76-6.2,3,2.88-4.15,2.85-160,0-164.18C534.65,68.45,538.81,66.85,538.46,71.21Z" transform="translate(0.65)"/><path class="cls-10" d="M549.16,35.88V48.73h-4.61c-.49-1.68,1.22-14.81-1.19-15.23C545.24,33.83,549.6,32.23,549.16,35.88Z" transform="translate(0.65)"/><path class="cls-11" d="M555.19,51.1V251.8h-4.62c-1.15-2.35,2.22-201.92-1.19-203.07C551.23,48.9,555.79,47.75,555.19,51.1Z" transform="translate(0.65)"/><path class="cls-12" d="M547.91,251.8c1.64-2.05-3.17-180.6,1.71-179.76l20.75,20.43c1.89,2,0,157,.66,159.33Z" transform="translate(0.65)"/><path class="cls-13" d="M571,94.6V251.8h-4.69V88.51C567.4,89.88,571.4,92.46,571,94.6Z" transform="translate(0.65)"/><path class="cls-14" d="M507.2,98.35h4.05V251.8H507.2Z" transform="translate(0.65)"/><path class="cls-15" d="M555.82,227c-4.79-1.6-.14-125.12-1.71-128.43,0-1.89.77-3.42,1.71-3.42,4.79,1.6.14,125.12,1.72,128.43C557.53,225.47,556.77,227,555.82,227Z" transform="translate(0.65)"/><path class="cls-15" d="M563.12,227c-1,0-1.71-1.53-1.71-3.42V108.94c0-1.89.76-3.42,1.71-3.42s1.71,1.53,1.71,3.42V223.58C564.83,225.47,564.06,227,563.12,227Z" transform="translate(0.65)"/><path class="cls-8" d="M590.58,166.57c-1.24-.77-13.46,1.85-12.4-1.81.44-1.25-1-15,.9-15.25,1.24.77,13.46-1.85,12.4,1.81C591,152.57,592.5,166.37,590.58,166.57Z" transform="translate(0.65)"/><path class="cls-8" d="M590.58,198.83c-1.24-.77-13.46,1.86-12.4-1.81.44-1.25-1-15,.9-15.25,1.24.77,13.46-1.85,12.4,1.81C591,184.83,592.5,198.63,590.58,198.83Z" transform="translate(0.65)"/><path class="cls-8" d="M590.58,231.09c-1.24-.76-13.46,1.86-12.4-1.81.44-1.25-1-15,.9-15.24,1.24.76,13.46-1.86,12.4,1.8C591,217.09,592.5,230.89,590.58,231.09Z" transform="translate(0.65)"/><path class="cls-9" d="M591.48,151.34v13.4c.46,3.06-4.1,1.45-5.52,1.83,1.48.4,1.5-17.4,0-17.06C587.4,149.9,591.93,148.28,591.48,151.34Z" transform="translate(0.65)"/><path class="cls-9" d="M591.48,183.6V197c.46,3.06-4.1,1.45-5.52,1.83,1.48.41,1.5-17.4,0-17.06C587.4,182.16,591.93,180.54,591.48,183.6Z" transform="translate(0.65)"/><path class="cls-9" d="M591.48,215.87v13.39c.46,3.07-4.1,1.45-5.52,1.83,1.48.41,1.5-17.4,0-17.05C587.4,214.42,591.93,212.8,591.48,215.87Z" transform="translate(0.65)"/><path class="cls-16" d="M503.2,167.47c-1.24-.76-13.46,1.86-12.41-1.81.44-1.25-1-15,.9-15.24,1.24.76,13.46-1.86,12.41,1.8C503.66,153.47,505.11,167.27,503.2,167.47Z" transform="translate(0.65)"/><path class="cls-16" d="M503.2,199.73c-1.24-.76-13.46,1.86-12.41-1.8.44-1.25-1-15.05.9-15.25,1.24.76,13.46-1.86,12.41,1.81C503.66,185.74,505.11,199.53,503.2,199.73Z" transform="translate(0.65)"/><path class="cls-16" d="M503.2,232c-1.24-.77-13.46,1.85-12.41-1.81.44-1.25-1-15.05.9-15.25,1.24.77,13.46-1.86,12.41,1.81C503.66,218,505.11,231.79,503.2,232Z" transform="translate(0.65)"/><path class="cls-16" d="M503.2,135.21c-1.24-.77-13.46,1.86-12.41-1.81.44-1.25-1-15,.9-15.25,1.24.77,13.46-1.85,12.41,1.81C503.66,121.21,505.11,135,503.2,135.21Z" transform="translate(0.65)"/><path class="cls-17" d="M504.1,152.25v13.39c.46,3.07-4.1,1.45-5.53,1.83,1.48.41,1.5-17.4,0-17.05C500,150.8,504.55,149.18,504.1,152.25Z" transform="translate(0.65)"/><path class="cls-17" d="M504.1,184.51v13.4c.46,3.06-4.1,1.44-5.53,1.82,1.48.41,1.5-17.4,0-17C500,183.06,504.55,181.44,504.1,184.51Z" transform="translate(0.65)"/><path class="cls-17" d="M504.1,216.77v13.4c.46,3.06-4.1,1.44-5.53,1.83,1.48.4,1.5-17.41,0-17.06C500,215.32,504.55,213.71,504.1,216.77Z" transform="translate(0.65)"/><path class="cls-17" d="M504.1,120v13.39c.46,3.06-4.1,1.44-5.53,1.83,1.48.41,1.5-17.4,0-17.05C500,118.54,504.55,116.92,504.1,120Z" transform="translate(0.65)"/></g><g class="cls-2"><polygon class="cls-18" points="460.54 249.01 450.79 249.01 452.42 110.4 458.92 110.4 460.54 249.01"/><rect class="cls-18" x="453.23" width="4.87" height="81.22"/><polygon class="cls-19" points="455.67 249.01 460.54 249.01 458.92 110.4 455.67 110.4 455.67 249.01"/><rect class="cls-19" x="455.67" width="2.44" height="81.22"/><rect class="cls-20" x="449.98" y="41.34" width="11.37" height="14.59"/><rect class="cls-18" x="455.67" y="41.34" width="5.69" height="14.59"/><path class="cls-20" d="M466.39,85.86c-4.63-9.23-18.11-9.23-22.75,0v19.9c4.64,9.23,18.12,9.23,22.75,0Z" transform="translate(0.65)"/><path class="cls-18" d="M455,78.79v34c4.14,0,9.38-2.83,11.37-7.07C465.82,95.92,470.4,79.11,455,78.79Z" transform="translate(0.65)"/></g><g class="cls-2"><path class="cls-21" d="M486.86,203c-2.67.35-2.67-6.26,0-5.91,2.67-.35,2.67,6.26,0,5.91" transform="translate(0.65)"/><polygon class="cls-22" points="467.59 176.35 467.59 166 445.86 166 445.86 176.35 438.61 176.35 438.61 216.3 453.1 216.3 453.1 207.42 474.83 207.42 474.83 176.35 467.59 176.35"/><polygon class="cls-21" points="416.88 251.8 453.1 251.8 453.1 216.3 416.88 216.3 416.88 251.8"/><polygon class="cls-21" points="453.1 251.8 496.56 251.8 496.56 207.42 453.1 207.42 453.1 251.8"/><polygon class="cls-22" points="420.5 216.3 431.37 216.3 431.37 210.38 420.5 210.38 420.5 216.3"/><polygon class="cls-22" points="438.61 251.8 453.1 251.8 453.1 222.21 438.61 222.21 438.61 251.8"/><path class="cls-22" d="M459.69,248.84c-3.9,2.08-.94-34.78-1.81-35.5,0-.89.73-1.48,1.81-1.48,3.9-2.08.95,34.78,1.82,35.5,0,.89-.73,1.48-1.82,1.48" transform="translate(0.65)"/><path class="cls-22" d="M466.94,248.84c-3.9,2.08-.95-34.78-1.82-35.5,0-.89.73-1.48,1.82-1.48,3.9-2.08.94,34.78,1.81,35.5,0,.89-.73,1.48-1.81,1.48" transform="translate(0.65)"/><path class="cls-22" d="M474.18,248.84c-3.9,2.08-.94-34.78-1.81-35.5,0-.89.72-1.48,1.81-1.48,3.9-2.08.94,34.78,1.81,35.5,0,.89-.72,1.48-1.81,1.48" transform="translate(0.65)"/><path class="cls-22" d="M481.43,248.84c-3.9,2.08-.95-34.78-1.82-35.5,0-.89.73-1.48,1.82-1.48,3.9-2.08.94,34.78,1.81,35.5,0,.89-.73,1.48-1.81,1.48" transform="translate(0.65)"/><path class="cls-22" d="M488.67,248.84c-3.9,2.08-.94-34.78-1.81-35.5,0-.89.72-1.48,1.81-1.48,3.9-2.08.94,34.78,1.81,35.5,0,.89-.72,1.48-1.81,1.48" transform="translate(0.65)"/><polygon class="cls-22" points="483.89 207.42 491.13 207.42 491.13 201.5 483.89 201.5 483.89 207.42"/><polygon class="cls-22" points="496.56 251.8 518.29 251.8 518.29 182.27 496.56 182.27 496.56 251.8"/><polygon class="cls-21" points="502 182.27 512.86 182.27 512.86 176.35 502 176.35 502 182.27"/><path class="cls-21" d="M452.45,229.61c-1.44-.45-9.17,1.25-9.06-1.48-.13-2.72,7.64-1,9.06-1.48a1.51,1.51,0,1,1,0,3" transform="translate(0.65)"/><path class="cls-21" d="M452.45,235.53c-1.44-.45-9.17,1.25-9.06-1.48-.13-2.73,7.64-1,9.06-1.48a1.51,1.51,0,1,1,0,3" transform="translate(0.65)"/><path class="cls-21" d="M452.45,241.44c-1.44-.44-9.17,1.25-9.06-1.47-.13-2.73,7.64-1,9.06-1.49a1.51,1.51,0,1,1,0,3" transform="translate(0.65)"/><path class="cls-21" d="M452.45,247.36c-1.44-.45-9.17,1.25-9.06-1.48-.13-2.72,7.64-1,9.06-1.48a1.51,1.51,0,1,1,0,3" transform="translate(0.65)"/><path class="cls-21" d="M445.21,217.78c-3.9,2.08-.95-34.78-1.82-35.51,0-.89.73-1.48,1.82-1.48,3.9-2.08.94,34.78,1.81,35.51,0,.88-.73,1.48-1.81,1.48" transform="translate(0.65)"/><path class="cls-21" d="M452.45,204.46c-3.71,1.31-1.06-21-1.81-22.19,6.21-8.46,2.83,19.63,3.62,20.71,0,.89-.72,1.48-1.81,1.48" transform="translate(0.65)"/><path class="cls-21" d="M459.69,204.46c-3.71,1.31-1.06-21-1.81-22.19,6.22-8.46,2.83,19.63,3.63,20.71,0,.89-.73,1.48-1.82,1.48" transform="translate(0.65)"/><path class="cls-21" d="M466.94,204.46c-3.71,1.31-1.06-21-1.81-22.19,6.21-8.46,2.82,19.63,3.62,20.71,0,.89-.73,1.48-1.81,1.48" transform="translate(0.65)"/><path class="cls-21" d="M503.16,192.92c-2.67.35-2.67-6.26,0-5.91,2.66-.33,2.67,6.14,0,5.91m0,8.88c-2.67.35-2.67-6.27,0-5.92,2.66-.33,2.67,6.15,0,5.92m0,8.87c-2.67.35-2.67-6.26,0-5.91,2.66-.33,2.67,6.15,0,5.91m0,8.88c-2.67.35-2.67-6.26,0-5.92,2.66-.32,2.67,6.15,0,5.92m0,8.88c-2.67.35-2.67-6.27,0-5.92,2.66-.33,2.67,6.15,0,5.92m0,8.87c-2.67.35-2.67-6.26,0-5.92,2.66-.32,2.67,6.15,0,5.92m0,8.88c-2.67.35-2.67-6.27,0-5.92,2.66-.33,2.67,6.15,0,5.92" transform="translate(0.65)"/><path class="cls-21" d="M510.4,192.92c-2.67.35-2.67-6.26,0-5.91,2.67-.33,2.67,6.14,0,5.91m0,8.88c-2.67.35-2.67-6.27,0-5.92,2.67-.33,2.67,6.15,0,5.92m0,8.87c-2.67.35-2.67-6.26,0-5.91,2.67-.33,2.67,6.15,0,5.91m0,8.88c-2.67.35-2.67-6.26,0-5.92,2.67-.32,2.67,6.15,0,5.92m0,8.88c-2.67.35-2.67-6.27,0-5.92,2.67-.33,2.67,6.15,0,5.92m0,8.87c-2.67.35-2.67-6.26,0-5.92,2.67-.32,2.67,6.15,0,5.92m0,8.88c-2.67.35-2.67-6.27,0-5.92,2.67-.33,2.67,6.15,0,5.92" transform="translate(0.65)"/><path class="cls-22" d="M423.47,226.65c-2.66.35-2.66-6.26,0-5.92,2.67-.35,2.67,6.27,0,5.92m0,8.88c-2.66.35-2.66-6.27,0-5.92,2.67-.35,2.67,6.26,0,5.92m0,8.87c-2.66.35-2.66-6.26,0-5.91,2.67-.35,2.67,6.26,0,5.91" transform="translate(0.65)"/><path class="cls-22" d="M430.72,226.65c-2.67.35-2.67-6.26,0-5.92,2.67-.35,2.67,6.27,0,5.92m0,8.88c-2.67.35-2.67-6.27,0-5.92,2.67-.35,2.67,6.26,0,5.92m0,8.87c-2.67.35-2.67-6.26,0-5.91,2.67-.35,2.67,6.26,0,5.91" transform="translate(0.65)"/><path class="cls-21" d="M452.45,177.83c-2.92.27-1.49-4.41-1.81-5.91,0-.89.72-1.48,1.81-1.48,2.91-.26,1.49,4.41,1.81,5.92,0,.88-.72,1.47-1.81,1.47" transform="translate(0.65)"/><path class="cls-21" d="M459.69,177.83c-2.91.27-1.49-4.41-1.81-5.91,0-.89.73-1.48,1.81-1.48,2.92-.26,1.5,4.41,1.81,5.92,0,.88-.72,1.47-1.81,1.47" transform="translate(0.65)"/></g><path class="cls-21" d="M387.06,189c-2.58.37-2.58-8.05,0-7.68,2.58-.37,2.58,8,0,7.68" transform="translate(0.65)"/><polygon class="cls-22" points="368.57 154.44 368.57 141 347.69 141 347.69 154.44 340.73 154.44 340.73 206.28 354.65 206.28 354.65 194.76 375.53 194.76 375.53 154.44 368.57 154.44"/><polygon class="cls-21" points="319.84 252.36 354.65 252.36 354.65 206.28 319.84 206.28 319.84 252.36"/><polygon class="cls-21" points="354.65 252.36 396.41 252.36 396.41 194.76 354.65 194.76 354.65 252.36"/><polygon class="cls-22" points="323.32 206.28 333.76 206.28 333.76 198.6 323.32 198.6 323.32 206.28"/><polygon class="cls-22" points="340.73 252.36 354.65 252.36 354.65 213.96 340.73 213.96 340.73 252.36"/><path class="cls-22" d="M361,248.52c-3.8,1.93-.88-45.28-1.74-46.08,6.9-12.06,2.18,44.46,3.48,44.16a1.74,1.74,0,0,1-1.74,1.92" transform="translate(0.65)"/><path class="cls-22" d="M367.92,248.52c-3.8,1.93-.87-45.28-1.74-46.08,6.9-12.06,2.18,44.46,3.48,44.16a1.74,1.74,0,0,1-1.74,1.92" transform="translate(0.65)"/><path class="cls-22" d="M374.88,248.52c-3.8,1.93-.87-45.28-1.74-46.08,6.9-12.06,2.18,44.46,3.48,44.16a1.74,1.74,0,0,1-1.74,1.92" transform="translate(0.65)"/><path class="cls-22" d="M381.84,248.52c-3.8,1.93-.87-45.28-1.74-46.08,6.9-12.06,2.18,44.46,3.48,44.16a1.74,1.74,0,0,1-1.74,1.92" transform="translate(0.65)"/><path class="cls-22" d="M388.8,248.52c-3.8,1.93-.87-45.28-1.74-46.08,6.9-12.06,2.18,44.46,3.48,44.16a1.73,1.73,0,0,1-1.74,1.92" transform="translate(0.65)"/><polygon class="cls-22" points="384.23 194.76 391.19 194.76 391.19 187.08 384.23 187.08 384.23 194.76"/><polygon class="cls-22" points="396.41 252.36 417.3 252.36 417.3 162.12 396.41 162.12 396.41 252.36"/><polygon class="cls-21" points="401.63 162.12 412.07 162.12 412.07 154.44 401.63 154.44 401.63 162.12"/><path class="cls-21" d="M354,223.56h-7c-2.29.13-2.29-4,0-3.84h7c2.29-.14,2.29,4,0,3.84" transform="translate(0.65)"/><path class="cls-21" d="M354,231.24h-7c-2.29.13-2.29-4,0-3.84h7c2.29-.14,2.29,4,0,3.84" transform="translate(0.65)"/><path class="cls-21" d="M354,238.92h-7c-2.29.13-2.29-4,0-3.84h7c2.29-.14,2.29,4,0,3.84" transform="translate(0.65)"/><path class="cls-21" d="M354,246.6h-7c-2.29.13-2.29-4,0-3.84h7c2.29-.14,2.29,4,0,3.84" transform="translate(0.65)"/><path class="cls-21" d="M347,208.2c-3.8,1.93-.88-45.28-1.75-46.08,6.91-12.06,2.19,44.46,3.49,44.16A1.74,1.74,0,0,1,347,208.2" transform="translate(0.65)"/><path class="cls-21" d="M354,190.92c-3.64,1.41-1-27.7-1.74-28.8,6.15-10.6,2.62,26.34,3.48,26.88a1.74,1.74,0,0,1-1.74,1.92" transform="translate(0.65)"/><path class="cls-21" d="M361,190.92c-3.64,1.41-1-27.7-1.74-28.8,6.15-10.6,2.62,26.34,3.48,26.88a1.74,1.74,0,0,1-1.74,1.92" transform="translate(0.65)"/><path class="cls-21" d="M367.92,190.92c-3.64,1.41-1-27.7-1.74-28.8,6.15-10.6,2.62,26.34,3.48,26.88a1.74,1.74,0,0,1-1.74,1.92" transform="translate(0.65)"/><path class="cls-21" d="M402.72,175.94c-2.58.37-2.58-8,0-7.68,2.59-.34,2.58,7.9,0,7.68m0,11.52c-2.58.37-2.58-8,0-7.68,2.59-.34,2.58,7.9,0,7.68m0,11.52c-2.58.37-2.58-8,0-7.68,2.59-.34,2.58,7.9,0,7.68m0,11.52c-2.58.37-2.58-8,0-7.68,2.59-.34,2.58,7.9,0,7.68m0,11.52c-2.58.37-2.58-8,0-7.68,2.59-.34,2.58,7.9,0,7.68m0,11.52c-2.58.37-2.58-8,0-7.68,2.59-.34,2.58,7.9,0,7.68m0,11.52c-2.58.37-2.58-8.05,0-7.68,2.59-.34,2.58,7.9,0,7.68" transform="translate(0.65)"/><path class="cls-21" d="M409.68,175.94c-2.58.37-2.58-8,0-7.68,2.59-.34,2.58,7.9,0,7.68m0,11.52c-2.58.37-2.58-8,0-7.68,2.59-.34,2.58,7.9,0,7.68m0,11.52c-2.58.37-2.58-8,0-7.68,2.59-.34,2.58,7.9,0,7.68m0,11.52c-2.58.37-2.58-8,0-7.68,2.59-.34,2.58,7.9,0,7.68m0,11.52c-2.58.37-2.58-8,0-7.68,2.59-.34,2.58,7.9,0,7.68m0,11.52c-2.58.37-2.58-8,0-7.68,2.59-.34,2.58,7.9,0,7.68m0,11.52c-2.58.37-2.58-8.05,0-7.68,2.59-.34,2.58,7.9,0,7.68" transform="translate(0.65)"/><path class="cls-22" d="M326.15,219.72c-2.58.37-2.58-8.05,0-7.68,2.59-.37,2.59,8,0,7.68m0,11.52c-2.58.37-2.58-8.05,0-7.68,2.59-.37,2.59,8,0,7.68m0,11.52c-2.58.37-2.58-8,0-7.68,2.59-.37,2.59,8,0,7.68" transform="translate(0.65)"/><path class="cls-22" d="M333.11,219.72c-2.58.37-2.58-8.05,0-7.68,2.59-.37,2.59,8,0,7.68m0,11.52c-2.58.37-2.58-8.05,0-7.68,2.59-.37,2.59,8,0,7.68m0,11.52c-2.58.37-2.58-8,0-7.68,2.59-.37,2.59,8,0,7.68" transform="translate(0.65)"/><path class="cls-21" d="M354,156.36c-2.6.76-2.61-10.35,0-9.6,2.6-.76,2.6,10.35,0,9.6" transform="translate(0.65)"/><path class="cls-21" d="M361,156.36c-2.6.76-2.61-10.35,0-9.6,2.6-.76,2.6,10.35,0,9.6" transform="translate(0.65)"/><g class="cls-23"><path class="cls-21" d="M181.84,198.06c-2.27.22-2.27-6.78,0-6.57,2.27-.22,2.27,6.79,0,6.57" transform="translate(0.65)"/><polygon class="cls-22" points="165.79 168.5 165.79 157 147.58 157 147.58 168.5 141.51 168.5 141.51 212.84 153.65 212.84 153.65 202.99 171.87 202.99 171.87 168.5 165.79 168.5"/><polygon class="cls-21" points="123.3 252.27 153.65 252.27 153.65 212.84 123.3 212.84 123.3 252.27"/><polygon class="cls-21" points="153.65 252.27 190.08 252.27 190.08 202.99 153.65 202.99 153.65 252.27"/><polygon class="cls-22" points="126.33 212.84 135.44 212.84 135.44 206.28 126.33 206.28 126.33 212.84"/><polygon class="cls-22" points="141.51 252.27 153.65 252.27 153.65 219.41 141.51 219.41 141.51 252.27"/><path class="cls-22" d="M159.07,249c-3.32,1.6-.75-38.69-1.52-39.42,6-10.3,1.91,38,3,37.78a1.5,1.5,0,0,1-1.52,1.64" transform="translate(0.65)"/><path class="cls-22" d="M165.14,249c-3.32,1.6-.75-38.69-1.51-39.42,6-10.3,1.9,38,3,37.78a1.49,1.49,0,0,1-1.52,1.64" transform="translate(0.65)"/><path class="cls-22" d="M171.22,249c-3.32,1.6-.76-38.69-1.52-39.42,6-10.3,1.9,38,3,37.78a1.5,1.5,0,0,1-1.52,1.64" transform="translate(0.65)"/><path class="cls-22" d="M177.29,249c-3.32,1.6-.76-38.69-1.52-39.42,6-10.3,1.9,38,3,37.78a1.5,1.5,0,0,1-1.52,1.64" transform="translate(0.65)"/><path class="cls-22" d="M183.36,249c-3.32,1.6-.76-38.69-1.52-39.42,6-10.3,1.9,38,3,37.78a1.5,1.5,0,0,1-1.52,1.64" transform="translate(0.65)"/><polygon class="cls-22" points="179.46 202.99 185.53 202.99 185.53 196.42 179.46 196.42 179.46 202.99"/><polygon class="cls-22" points="190.08 252.27 208.29 252.27 208.29 175.07 190.08 175.07 190.08 252.27"/><polygon class="cls-21" points="194.63 175.07 203.74 175.07 203.74 168.5 194.63 168.5 194.63 175.07"/><path class="cls-21" d="M153,227.63c-1.43-.44-7.87,1.27-7.59-1.64-.29-2.91,6.18-1.22,7.59-1.65,2-.11,2,3.4,0,3.29" transform="translate(0.65)"/><path class="cls-21" d="M153,234.2c-1.43-.44-7.87,1.27-7.59-1.64-.29-2.91,6.18-1.22,7.59-1.65,2-.11,2,3.4,0,3.29" transform="translate(0.65)"/><path class="cls-21" d="M153,240.77c-1.43-.44-7.87,1.27-7.59-1.64-.29-2.91,6.18-1.22,7.59-1.65,2-.11,2,3.4,0,3.29" transform="translate(0.65)"/><path class="cls-21" d="M153,247.34c-1.43-.44-7.87,1.27-7.59-1.64-.29-2.91,6.18-1.22,7.59-1.65,2-.11,2,3.4,0,3.29" transform="translate(0.65)"/><path class="cls-21" d="M146.93,214.49c-3.32,1.6-.76-38.69-1.52-39.42,6-10.3,1.9,38,3,37.77a1.5,1.5,0,0,1-1.52,1.65" transform="translate(0.65)"/><path class="cls-21" d="M153,199.71c-3.17,1.21-.85-23.68-1.52-24.64,5.36-9.09,2.3,22.5,3,23a1.5,1.5,0,0,1-1.52,1.65" transform="translate(0.65)"/><path class="cls-21" d="M159.07,199.71c-3.17,1.21-.85-23.68-1.52-24.64,5.36-9.09,2.3,22.5,3,23a1.5,1.5,0,0,1-1.52,1.65" transform="translate(0.65)"/><path class="cls-21" d="M165.14,199.71c-3.17,1.21-.85-23.68-1.51-24.64,5.35-9.09,2.29,22.5,3,23a1.5,1.5,0,0,1-1.52,1.65" transform="translate(0.65)"/><path class="cls-21" d="M195.5,186.89c-2.27.22-2.27-6.78,0-6.57,2.28-.19,2.27,6.66,0,6.57m0,9.86c-2.27.22-2.27-6.79,0-6.57,2.28-.19,2.27,6.66,0,6.57m0,9.85c-2.27.22-2.27-6.78,0-6.57,2.28-.19,2.27,6.66,0,6.57m0,9.86c-2.27.22-2.27-6.79,0-6.57,2.28-.19,2.27,6.66,0,6.57m0,9.85c-2.27.22-2.27-6.78,0-6.57,2.28-.19,2.27,6.66,0,6.57m0,9.86c-2.27.22-2.27-6.79,0-6.57,2.28-.19,2.27,6.66,0,6.57m0,9.85c-2.27.22-2.27-6.78,0-6.57,2.28-.19,2.27,6.66,0,6.57" transform="translate(0.65)"/><path class="cls-21" d="M201.57,186.89c-2.27.22-2.27-6.78,0-6.57,2.28-.19,2.27,6.66,0,6.57m0,9.86c-2.27.22-2.27-6.79,0-6.57,2.28-.19,2.27,6.66,0,6.57m0,9.85c-2.27.22-2.27-6.78,0-6.57,2.28-.19,2.27,6.66,0,6.57m0,9.86c-2.27.22-2.27-6.79,0-6.57,2.28-.19,2.27,6.66,0,6.57m0,9.85c-2.27.22-2.27-6.78,0-6.57,2.28-.19,2.27,6.66,0,6.57m0,9.86c-2.27.22-2.27-6.79,0-6.57,2.28-.19,2.27,6.66,0,6.57m0,9.85c-2.27.22-2.27-6.78,0-6.57,2.28-.19,2.27,6.66,0,6.57" transform="translate(0.65)"/><path class="cls-22" d="M128.72,224.34c-2.27.22-2.28-6.78,0-6.57,2.27-.22,2.27,6.79,0,6.57m0,9.86c-2.27.22-2.28-6.79,0-6.57,2.27-.22,2.27,6.78,0,6.57m0,9.85c-2.27.22-2.28-6.78,0-6.57,2.27-.22,2.27,6.79,0,6.57" transform="translate(0.65)"/><path class="cls-22" d="M134.79,224.34c-2.27.22-2.27-6.78,0-6.57,2.27-.22,2.27,6.79,0,6.57m0,9.86c-2.27.22-2.27-6.79,0-6.57,2.27-.22,2.27,6.78,0,6.57m0,9.85c-2.27.22-2.27-6.78,0-6.57,2.27-.22,2.27,6.79,0,6.57" transform="translate(0.65)"/><path class="cls-21" d="M153,170.14c-2.29.53-2.29-8.74,0-8.21,2.29-.54,2.29,8.74,0,8.21" transform="translate(0.65)"/><path class="cls-21" d="M159.07,170.14c-2.28.53-2.29-8.74,0-8.21,2.29-.54,2.29,8.74,0,8.21" transform="translate(0.65)"/></g><path class="cls-21" d="M285,188.54c-2.95.46-2.95-8.14,0-7.68,3-.46,3,8.14,0,7.68" transform="translate(0.65)"/><polygon class="cls-22" points="263.67 153.98 263.67 140.54 239.66 140.54 239.66 153.98 231.66 153.98 231.66 205.82 247.66 205.82 247.66 194.3 271.67 194.3 271.67 153.98 263.67 153.98"/><polygon class="cls-21" points="207.65 251.9 247.66 251.9 247.66 205.82 207.65 205.82 207.65 251.9"/><polygon class="cls-21" points="247.66 251.9 295.68 251.9 295.68 194.3 247.66 194.3 247.66 251.9"/><polygon class="cls-22" points="211.65 205.82 223.66 205.82 223.66 198.14 211.65 198.14 211.65 205.82"/><polygon class="cls-22" points="231.66 251.9 247.66 251.9 247.66 213.5 231.66 213.5 231.66 251.9"/><path class="cls-22" d="M255,248.06c-4.35,2.32-1-45.26-2-46.08,7.86-12.51,2.56,44.21,4,44.16a1.85,1.85,0,0,1-2,1.92" transform="translate(0.65)"/><path class="cls-22" d="M263,248.06c-4.35,2.32-1-45.26-2-46.08,7.85-12.51,2.55,44.21,4,44.16a1.85,1.85,0,0,1-2,1.92" transform="translate(0.65)"/><path class="cls-22" d="M271,248.06c-4.35,2.32-1-45.26-2-46.08,7.85-12.51,2.55,44.21,4,44.16a1.85,1.85,0,0,1-2,1.92" transform="translate(0.65)"/><path class="cls-22" d="M279,248.06c-4.34,2.32-1-45.26-2-46.08,7.86-12.51,2.56,44.21,4,44.16a1.87,1.87,0,0,1-2,1.92" transform="translate(0.65)"/><path class="cls-22" d="M287,248.06c-4.35,2.32-1-45.26-2-46.08,7.86-12.51,2.56,44.21,4,44.16a1.85,1.85,0,0,1-2,1.92" transform="translate(0.65)"/><polygon class="cls-22" points="281.68 194.3 289.68 194.3 289.68 186.62 281.68 186.62 281.68 194.3"/><polygon class="cls-22" points="295.68 251.9 319.69 251.9 319.69 161.66 295.68 161.66 295.68 251.9"/><polygon class="cls-21" points="301.68 161.66 313.69 161.66 313.69 153.98 301.68 153.98 301.68 161.66"/><path class="cls-21" d="M247,223.1h-8c-2.63.13-2.63-4,0-3.84h8c2.63-.14,2.64,4,0,3.84" transform="translate(0.65)"/><path class="cls-21" d="M247,230.78h-8c-2.63.13-2.63-4,0-3.84h8c2.63-.14,2.64,4,0,3.84" transform="translate(0.65)"/><path class="cls-21" d="M247,238.46h-8c-2.63.13-2.63-4,0-3.84h8c2.63-.14,2.64,4,0,3.84" transform="translate(0.65)"/><path class="cls-21" d="M247,246.14h-8c-2.63.13-2.63-4,0-3.84h8c2.63-.14,2.64,4,0,3.84" transform="translate(0.65)"/><path class="cls-21" d="M239,207.74c-4.35,2.32-1-45.26-2-46.08,7.85-12.51,2.55,44.21,4,44.16a1.85,1.85,0,0,1-2,1.92" transform="translate(0.65)"/><path class="cls-21" d="M247,190.46c-4.15,1.51-1.14-27.52-2-28.8,7-10.76,3.07,26,4,26.88a1.85,1.85,0,0,1-2,1.92" transform="translate(0.65)"/><path class="cls-21" d="M255,190.46c-4.15,1.51-1.14-27.52-2-28.8,7-10.76,3.07,26,4,26.88a1.85,1.85,0,0,1-2,1.92" transform="translate(0.65)"/><path class="cls-21" d="M263,190.46c-4.15,1.51-1.14-27.52-2-28.8,7-10.76,3.06,26,4,26.88a1.85,1.85,0,0,1-2,1.92" transform="translate(0.65)"/><path class="cls-21" d="M303,175.48c-2.95.46-2.95-8.13,0-7.68,3-.43,2.94,8,0,7.68M303,187c-2.95.46-2.95-8.13,0-7.68,3-.43,2.94,8,0,7.68m0,11.52c-2.95.46-2.95-8.13,0-7.68,3-.43,2.94,8,0,7.68M303,210c-2.95.46-2.95-8.13,0-7.68,3-.43,2.94,8,0,7.68m0,11.52c-2.95.46-2.95-8.13,0-7.68,3-.43,2.94,8,0,7.68m0,11.52c-2.95.46-2.95-8.13,0-7.68,3-.43,2.94,8,0,7.68m0,11.52c-2.95.46-2.95-8.13,0-7.68,3-.43,2.94,8,0,7.68" transform="translate(0.65)"/><path class="cls-21" d="M311,175.48c-2.94.46-2.94-8.13,0-7.68,3-.43,3,8,0,7.68M311,187c-2.94.46-2.94-8.13,0-7.68,3-.43,3,8,0,7.68m0,11.52c-2.94.46-2.94-8.13,0-7.68,3-.43,3,8,0,7.68M311,210c-2.94.46-2.94-8.13,0-7.68,3-.43,3,8,0,7.68m0,11.52c-2.94.46-2.94-8.13,0-7.68,3-.43,3,8,0,7.68m0,11.52c-2.94.46-2.94-8.13,0-7.68,3-.43,3,8,0,7.68m0,11.52c-2.94.46-2.94-8.13,0-7.68,3-.43,3,8,0,7.68" transform="translate(0.65)"/><path class="cls-22" d="M215,219.26c-2.94.46-2.95-8.14,0-7.68,2.95-.46,2.95,8.14,0,7.68m0,11.52c-2.94.46-2.95-8.14,0-7.68,2.95-.46,2.95,8.14,0,7.68m0,11.52c-2.94.46-2.95-8.14,0-7.68,2.95-.46,2.95,8.13,0,7.68" transform="translate(0.65)"/><path class="cls-22" d="M223,219.26c-2.95.46-2.95-8.14,0-7.68,2.95-.46,2.95,8.14,0,7.68m0,11.52c-2.95.46-2.95-8.14,0-7.68,2.95-.46,2.95,8.14,0,7.68m0,11.52c-2.95.46-2.95-8.14,0-7.68,2.95-.46,2.95,8.13,0,7.68" transform="translate(0.65)"/><path class="cls-21" d="M247,155.9c-3.31.25-1.6-6-2-7.68a1.85,1.85,0,0,1,2-1.92c3.31-.25,1.61,5.95,2,7.68a1.85,1.85,0,0,1-2,1.92" transform="translate(0.65)"/><path class="cls-21" d="M255,155.9c-3.32.25-1.61-6-2-7.68a1.86,1.86,0,0,1,2-1.92c3.31-.25,1.6,5.95,2,7.68a1.85,1.85,0,0,1-2,1.92" transform="translate(0.65)"/><g class="cls-2"><path class="cls-21" d="M86.11,189.1c-3.24.52-3.24-8.2,0-7.68,3.24-.52,3.24,8.19,0,7.68" transform="translate(0.65)"/><polygon class="cls-22" points="62.47 154.54 62.47 141.1 35.98 141.1 35.98 154.54 27.15 154.54 27.15 206.38 44.81 206.38 44.81 194.86 71.31 194.86 71.31 154.54 62.47 154.54"/><polygon class="cls-21" points="0.65 252.46 44.81 252.46 44.81 206.38 0.65 206.38 0.65 252.46"/><polygon class="cls-21" points="44.81 252.46 97.8 252.46 97.8 194.86 44.81 194.86 44.81 252.46"/><polygon class="cls-22" points="5.07 206.38 18.31 206.38 18.31 198.7 5.07 198.7 5.07 206.38"/><polygon class="cls-22" points="27.15 252.46 44.81 252.46 44.81 214.06 27.15 214.06 27.15 252.46"/><path class="cls-22" d="M53,248.62c-4.81,2.25-1.11-45-2.21-46.08,8.62-12.6,2.85,43.89,4.42,44.16A2,2,0,0,1,53,248.62" transform="translate(0.65)"/><path class="cls-22" d="M61.82,248.62c-4.8,2.25-1.11-45-2.21-46.08,8.62-12.6,2.85,43.89,4.42,44.16a2,2,0,0,1-2.21,1.92" transform="translate(0.65)"/><path class="cls-22" d="M70.65,248.62c-4.8,2.25-1.11-45-2.21-46.08,8.62-12.6,2.85,43.89,4.42,44.16a2,2,0,0,1-2.21,1.92" transform="translate(0.65)"/><path class="cls-22" d="M79.49,248.62c-4.81,2.25-1.12-45-2.21-46.08,8.62-12.6,2.84,43.89,4.42,44.16a2,2,0,0,1-2.21,1.92" transform="translate(0.65)"/><path class="cls-22" d="M88.32,248.62c-4.81,2.25-1.12-45-2.21-46.08,8.62-12.6,2.85,43.89,4.42,44.16a2,2,0,0,1-2.21,1.92" transform="translate(0.65)"/><polygon class="cls-22" points="82.34 194.86 91.18 194.86 91.18 187.18 82.34 187.18 82.34 194.86"/><polygon class="cls-22" points="97.8 252.46 124.3 252.46 124.3 162.22 97.8 162.22 97.8 252.46"/><polygon class="cls-21" points="104.42 162.22 117.67 162.22 117.67 154.54 104.42 154.54 104.42 162.22"/><path class="cls-21" d="M44.16,223.66H35.33a1.94,1.94,0,1,1,0-3.84h8.83a1.94,1.94,0,1,1,0,3.84" transform="translate(0.65)"/><path class="cls-21" d="M44.16,231.34H35.33a1.94,1.94,0,1,1,0-3.84h8.83a1.94,1.94,0,1,1,0,3.84" transform="translate(0.65)"/><path class="cls-21" d="M44.16,239H35.33a1.94,1.94,0,1,1,0-3.84h8.83a1.94,1.94,0,1,1,0,3.84" transform="translate(0.65)"/><path class="cls-21" d="M44.16,246.7H35.33a1.94,1.94,0,1,1,0-3.84h8.83a1.94,1.94,0,1,1,0,3.84" transform="translate(0.65)"/><path class="cls-21" d="M35.33,208.3c-4.81,2.25-1.12-45-2.21-46.08,8.62-12.6,2.85,43.89,4.42,44.16a2,2,0,0,1-2.21,1.92" transform="translate(0.65)"/><path class="cls-21" d="M44.16,191c-4.55,1.62-1.28-27.39-2.21-28.8,7.63-10.9,3.42,25.68,4.42,26.88A2,2,0,0,1,44.16,191" transform="translate(0.65)"/><path class="cls-21" d="M53,191c-4.54,1.62-1.28-27.39-2.21-28.8,7.63-10.9,3.42,25.68,4.42,26.88A2,2,0,0,1,53,191" transform="translate(0.65)"/><path class="cls-21" d="M61.82,191c-4.54,1.62-1.28-27.39-2.21-28.8C67.24,151.32,63,187.9,64,189.1A2,2,0,0,1,61.82,191" transform="translate(0.65)"/><path class="cls-21" d="M106,176c-3.24.52-3.24-8.19,0-7.68,3.24-.5,3.24,8,0,7.68m0,11.52c-3.24.52-3.24-8.19,0-7.68,3.24-.5,3.24,8.05,0,7.68m0,11.52c-3.24.52-3.24-8.2,0-7.68,3.24-.5,3.24,8,0,7.68m0,11.52c-3.24.52-3.24-8.2,0-7.68,3.24-.5,3.24,8.05,0,7.68m0,11.52c-3.24.52-3.24-8.2,0-7.68,3.24-.5,3.24,8.05,0,7.68m0,11.52c-3.24.52-3.24-8.2,0-7.68,3.24-.5,3.24,8,0,7.68m0,11.52c-3.24.52-3.24-8.2,0-7.68,3.24-.5,3.24,8.05,0,7.68" transform="translate(0.65)"/><path class="cls-21" d="M114.81,176c-3.23.52-3.24-8.19,0-7.68,3.24-.5,3.24,8,0,7.68m0,11.52c-3.23.52-3.24-8.19,0-7.68,3.24-.5,3.24,8.05,0,7.68m0,11.52c-3.23.52-3.24-8.2,0-7.68,3.24-.5,3.24,8,0,7.68m0,11.52c-3.23.52-3.24-8.2,0-7.68,3.24-.5,3.24,8.05,0,7.68m0,11.52c-3.23.52-3.24-8.2,0-7.68,3.24-.5,3.24,8.05,0,7.68m0,11.52c-3.23.52-3.24-8.2,0-7.68,3.24-.5,3.24,8,0,7.68m0,11.52c-3.23.52-3.24-8.2,0-7.68,3.24-.5,3.24,8.05,0,7.68" transform="translate(0.65)"/><path class="cls-22" d="M8.83,219.82c-3.24.51-3.24-8.2,0-7.68,3.24-.52,3.24,8.19,0,7.68m0,11.52c-3.24.51-3.24-8.2,0-7.68,3.24-.52,3.24,8.19,0,7.68m0,11.52c-3.24.51-3.24-8.2,0-7.68,3.24-.52,3.24,8.19,0,7.68" transform="translate(0.65)"/><path class="cls-22" d="M17.66,219.82c-3.23.51-3.24-8.2,0-7.68,3.24-.52,3.24,8.19,0,7.68m0,11.52c-3.23.51-3.24-8.2,0-7.68,3.24-.52,3.24,8.19,0,7.68m0,11.52c-3.23.51-3.24-8.2,0-7.68,3.24-.52,3.24,8.19,0,7.68" transform="translate(0.65)"/><path class="cls-21" d="M44.16,156.46c-3.59.3-1.8-5.83-2.21-7.68a2,2,0,0,1,2.21-1.92c3.59-.31,1.8,5.82,2.21,7.68a2,2,0,0,1-2.21,1.92" transform="translate(0.65)"/><path class="cls-21" d="M53,156.46c-3.59.3-1.8-5.83-2.21-7.68A2,2,0,0,1,53,146.86c3.59-.31,1.8,5.82,2.21,7.68A2,2,0,0,1,53,156.46" transform="translate(0.65)"/></g><g id="Road"><rect id="_Rectangle_" data-name="&lt;Rectangle&gt;" class="cls-24" y="259.19" width="601" height="20"/><path class="cls-25" d="M18.41,269.19h-14v-2C5.3,268,20.93,265.1,18.41,269.19Z" transform="translate(0.65)"/><path class="cls-25" d="M49.52,269.19H35.47v-2C36.41,268,52,265.1,49.52,269.19Z" transform="translate(0.65)"/><path class="cls-25" d="M80.62,269.19H66.57v-2C67.51,268,83.14,265.1,80.62,269.19Z" transform="translate(0.65)"/><path class="cls-25" d="M109.72,269.19h-14v-2C96.61,268,112.23,265.1,109.72,269.19Z" transform="translate(0.65)"/><path class="cls-25" d="M140.82,269.19h-14v-2C127.71,268,143.34,265.1,140.82,269.19Z" transform="translate(0.65)"/><path class="cls-25" d="M171.92,269.19h-14v-2C158.81,268,174.44,265.1,171.92,269.19Z" transform="translate(0.65)"/><path class="cls-25" d="M201,269.19H187v-2C187.91,268,203.54,265.1,201,269.19Z" transform="translate(0.65)"/><path class="cls-25" d="M232.12,269.19h-14v-2C219,268,234.64,265.1,232.12,269.19Z" transform="translate(0.65)"/><path class="cls-25" d="M263.23,269.19H249.18v-2C250.12,268,265.74,265.1,263.23,269.19Z" transform="translate(0.65)"/><path class="cls-25" d="M292.32,269.19h-14v-2C279.21,268,294.84,265.1,292.32,269.19Z" transform="translate(0.65)"/><path class="cls-25" d="M323.43,269.19H309.38v-2C310.32,268,326,265.1,323.43,269.19Z" transform="translate(0.65)"/><path class="cls-25" d="M354.53,269.19h-14v-2C341.42,268,357.05,265.1,354.53,269.19Z" transform="translate(0.65)"/><path class="cls-25" d="M383.63,269.19H369.58v-2C370.52,268,386.15,265.1,383.63,269.19Z" transform="translate(0.65)"/><path class="cls-25" d="M414.73,269.19H400.68v-2C401.62,268,417.25,265.1,414.73,269.19Z" transform="translate(0.65)"/><path class="cls-25" d="M445.84,269.19h-14v-2C432.72,268,448.35,265.1,445.84,269.19Z" transform="translate(0.65)"/><path class="cls-25" d="M474.93,269.19h-14v-2C461.82,268,477.45,265.1,474.93,269.19Z" transform="translate(0.65)"/><path class="cls-25" d="M506,269.19H492v-2C492.92,268,508.55,265.1,506,269.19Z" transform="translate(0.65)"/><path class="cls-25" d="M537.14,269.19h-14v-2C524,268,539.66,265.1,537.14,269.19Z" transform="translate(0.65)"/><path class="cls-25" d="M567.24,269.19h-14v-2C554.13,268,569.76,265.1,567.24,269.19Z" transform="translate(0.65)"/><path class="cls-25" d="M598.34,269.19h-14v-2C585.23,268,600.86,265.1,598.34,269.19Z" transform="translate(0.65)"/><line class="cls-26" x1="1" y1="279.19" x2="600" y2="279.19"/></g><g class="cls-27"><path class="cls-28" d="M582.53,257.61h-1.82a.56.56,0,0,1-.47-.61v-9.4H583V257A.56.56,0,0,1,582.53,257.61Z" transform="translate(0.65)"/><path class="cls-14" d="M577.62,247.58c-2.19,0-4-2.32-4-5.17,0-.2,0-.46-.15-.56a6,6,0,0,1,0-9.15c.18-.11.14-.38.14-.6,0-2.85,1.79-5.15,4-5.14h0a.29.29,0,0,0,.27-.25c.53-2.05,2-3.53,3.78-3.52s3.24,1.49,3.76,3.54a.3.3,0,0,0,.27.25h0c2.2,0,4,2.32,4,5.17,0,.21,0,.48.14.6a6,6,0,0,1-.08,9.15c-.17.1-.15.35-.15.56,0,2.84-1.79,5.15-4,5.14Z" transform="translate(0.65)"/><path class="cls-29" d="M582.75,247.53h-2.51v2.28a2,2,0,0,0,1-.26c.23-.13.49.09.49.42v7a.56.56,0,0,0,.47.61h.33A.56.56,0,0,0,583,257v-9.47Z" transform="translate(0.65)"/><path class="cls-16" d="M589.78,232.75c-.18-.12-.15-.39-.14-.6a5.32,5.32,0,0,0-2.52-4.81c0,.23,0,.46,0,.69,0,9.24-5.77,16.73-12.88,16.73h-.17a4,4,0,0,0,3.53,2.83l8,0c2.19,0,4-2.3,4-5.14,0-.21,0-.46.15-.56a6,6,0,0,0,.08-9.15Z" transform="translate(0.65)"/><path class="cls-30" d="M586.74,258.13H576.49a.48.48,0,0,1-.4-.52.47.47,0,0,1,.4-.52h10.25a.47.47,0,0,1,.4.52A.48.48,0,0,1,586.74,258.13Z" transform="translate(0.65)"/></g><path class="cls-31" d="M494.3,256.24h7.37v1.48H494.3Z" transform="translate(0.65)"/><path class="cls-32" d="M495.77,253.29h4.42v3h-4.42Z" transform="translate(0.65)"/><path class="cls-31" d="M491.35,235.61h13.26v17.68H491.35Z" transform="translate(0.65)"/><path class="cls-33" d="M491.35,250.34h.37c5.29,0,9.58-4.62,9.58-10.32a10.8,10.8,0,0,0-.93-4.42h-9Z" transform="translate(0.65)"/><path class="cls-34" d="M492.82,237.08h10.32v14.74H492.82Z" transform="translate(0.65)"/><path class="cls-35" d="M492.82,250.28c4.77-.59,8.48-4.95,8.48-10.25a11.06,11.06,0,0,0-.4-2.95h-8.08Z" transform="translate(0.65)"/><path class="cls-36" d="M494.3,244.45h7.37v3H494.3Z" transform="translate(0.65)"/><path class="cls-37" d="M500.37,244.45H494.3v3h4.12A10.23,10.23,0,0,0,500.37,244.45Z" transform="translate(0.65)"/><circle class="cls-38" cx="496.79" cy="239.3" r="0.74"/><path class="cls-39" d="M496.88,241.88l1.84-1.84,2.95,3H494.3l1.84-1.85L498,243" transform="translate(0.65)"/><path class="cls-31" d="M495.4,245.56h5.16v.73H495.4Z" transform="translate(0.65)"/><path class="cls-40" d="M493.93,248.5H502v.74h-8.1Z" transform="translate(0.65)"/><path class="cls-40" d="M493.93,250H502v.74h-8.1Z" transform="translate(0.65)"/><path class="cls-41" d="M417,257h8.17v2.25h26.95a.79.79,0,0,1,.82.75v1.5a.79.79,0,0,1-.82.75H417V257Z" transform="translate(0.65)"/><path class="cls-42" d="M424.31,241.19h30.22a.79.79,0,0,1,.82.75v16.51a.79.79,0,0,1-.82.75H424.31a.79.79,0,0,1-.82-.75V241.94A.79.79,0,0,1,424.31,241.19Z" transform="translate(0.65)"/><path class="cls-43" d="M425.94,256.64h27a.79.79,0,0,0,.82-.75h0a.79.79,0,0,0-.82-.75h-27a.78.78,0,0,0-.81.75h0A.78.78,0,0,0,425.94,256.64Z" transform="translate(0.65)"/><path class="cls-42" d="M414,244.94H421a.79.79,0,0,1,.82.75V257a.79.79,0,0,1-.82.75h-3.67v3.75h-8.58v-5.36a7,7,0,0,1,.54-2.69l3.14-7.5A1.63,1.63,0,0,1,414,244.94Z" transform="translate(0.65)"/><rect class="cls-44" x="409.44" y="257.7" width="8.58" height="3.75"/><ellipse class="cls-45" cx="446.61" cy="261.83" rx="3.74" ry="3.44"/><path class="cls-46" d="M446,266a4.15,4.15,0,1,0-4.5-4.13A4.33,4.33,0,0,0,446,266Zm0-6.76a2.63,2.63,0,1,1-2.86,2.63A2.75,2.75,0,0,1,446,259.2Z" transform="translate(0.65)"/><ellipse class="cls-47" cx="446.61" cy="261.83" rx="1.63" ry="1.5"/><ellipse class="cls-45" cx="418.02" cy="261.83" rx="3.74" ry="3.44"/><path class="cls-46" d="M417.37,266a4.15,4.15,0,1,0-4.5-4.13A4.33,4.33,0,0,0,417.37,266Zm0-6.76a2.63,2.63,0,1,1-2.86,2.63A2.75,2.75,0,0,1,417.37,259.2Z" transform="translate(0.65)"/><ellipse class="cls-47" cx="418.02" cy="261.83" rx="1.63" ry="1.5"/><path class="cls-41" d="M409.61,262.2h-.82a.79.79,0,0,1-.82-.75V260a.79.79,0,0,1,.82-.75h.82a.78.78,0,0,1,.81.75v1.5A.78.78,0,0,1,409.61,262.2Z" transform="translate(0.65)"/><path class="cls-45" d="M409.61,256.2h-.82v2.25h.82a.78.78,0,0,0,.81-.75V257A.78.78,0,0,0,409.61,256.2Z" transform="translate(0.65)"/><path class="cls-41" d="M414.24,246.44h5.17a.78.78,0,0,1,.81.75v3.75a.78.78,0,0,1-.81.76h-7.63a.55.55,0,0,1-.55-.74l1.49-3.56A1.63,1.63,0,0,1,414.24,246.44Z" transform="translate(0.65)"/><path class="cls-48" d="M574.81,265.45c-1.44-.8-6.09-1.83-12.62-1.83L558.75,260a4,4,0,0,0-2.91-1.21H545.53a4.85,4.85,0,0,0-3,1l-4.07,3.15-4.34.56a1.48,1.48,0,0,0-1.26,1l-.52,1.86,11.48,4.85H576v-3.91A2.18,2.18,0,0,0,574.81,265.45Z" transform="translate(0.65)"/><path class="cls-49" d="M576,267.78c0-1.39-2.3-2.77-13-2.77H533.12a.73.73,0,0,0-.77.69v4.16l14.54,2.07H576v-4.15Z" transform="translate(0.65)"/><path class="cls-50" d="M576,270.55H540.09l-6.81-1.37a.77.77,0,0,0-.91.53.69.69,0,0,0,.58.82l6.89,1.39H576a.69.69,0,1,0,0-1.38Z" transform="translate(0.65)"/><ellipse class="cls-45" cx="569.73" cy="270.55" rx="3.83" ry="3.46"/><path class="cls-46" d="M569.08,274.7a4.18,4.18,0,1,1,4.59-4.15A4.39,4.39,0,0,1,569.08,274.7Zm0-6.92a2.78,2.78,0,1,0,3.06,2.77A2.93,2.93,0,0,0,569.08,267.78Z" transform="translate(0.65)"/><ellipse class="cls-47" cx="569.73" cy="270.55" rx="1.53" ry="1.38"/><ellipse class="cls-45" cx="540.65" cy="270.55" rx="3.83" ry="3.46"/><path class="cls-46" d="M540,274.7a4.18,4.18,0,1,1,4.59-4.15A4.39,4.39,0,0,1,540,274.7Zm0-6.92a2.78,2.78,0,1,0,3.06,2.77A2.93,2.93,0,0,0,540,267.78Z" transform="translate(0.65)"/><ellipse class="cls-47" cx="540.65" cy="270.55" rx="1.53" ry="1.38"/><path class="cls-50" d="M563,269.16H546.89a.74.74,0,0,1-.77-.69h0a.74.74,0,0,1,.77-.69H563a.73.73,0,0,1,.76.69h0A.73.73,0,0,1,563,269.16Z" transform="translate(0.65)"/><path class="cls-50" d="M576,269.16h-.77a.73.73,0,0,1-.76-.69h0a.73.73,0,0,1,.76-.69H576a.73.73,0,0,1,.76.69h0A.73.73,0,0,1,576,269.16Z" transform="translate(0.65)"/><path class="cls-49" d="M538.47,262.93l4.07-3.15a4.85,4.85,0,0,1,3-1h10.31a4,4,0,0,1,2.91,1.21l3.44,3.63H544.08a13.63,13.63,0,0,1-2-.15Z" transform="translate(0.65)"/><path class="cls-41" d="M555,260a1.58,1.58,0,0,0-1.18-.5h-7.06a1.58,1.58,0,0,0-1.08.4l-2.3,2.08a1,1,0,0,0-.32.69h0a1,1,0,0,0,1.08,1h13.41a.34.34,0,0,0,.29-.56Z" transform="translate(0.65)"/><polygon class="cls-46" points="549.07 263.62 546.77 263.62 548.3 259.47 549.84 259.47 549.07 263.62"/><path class="cls-45" d="M575.15,265.7h-.71a.7.7,0,1,0,0,1.39h1.49A2.1,2.1,0,0,0,575.15,265.7Z" transform="translate(0.65)"/><path class="cls-41" d="M558.75,260a3.73,3.73,0,0,0-.61-.52h-1.25a.35.35,0,0,0-.3.57l2.85,3.09a1.61,1.61,0,0,0,1.17.49h1.58Z" transform="translate(0.65)"/><path class="cls-51" d="M532.35,265.7v.69h1.53a.69.69,0,1,0,0-1.38h-.76A.73.73,0,0,0,532.35,265.7Z" transform="translate(0.65)"/><path class="cls-50" d="M230.84,253.36v-2.31a.83.83,0,0,0-.61-.78l-8-2.49a.88.88,0,0,0-1.17.79v4.79Z" transform="translate(0.65)"/><path class="cls-52" d="M170.64,274.63H147.86a1.58,1.58,0,0,1-1.63-1.52v-3h24.41Z" transform="translate(0.65)"/><path class="cls-53" d="M185.37,271.59H144.6a1.58,1.58,0,0,1-1.62-1.52v-3h53.69L188.28,271A6.9,6.9,0,0,1,185.37,271.59Z" transform="translate(0.65)"/><ellipse class="cls-46" cx="168.03" cy="273.11" rx="4.88" ry="4.56"/><ellipse class="cls-47" cx="168.03" cy="273.11" rx="2.44" ry="2.28"/><ellipse class="cls-46" cx="158.27" cy="273.11" rx="4.88" ry="4.56"/><ellipse class="cls-47" cx="158.27" cy="273.11" rx="2.44" ry="2.28"/><rect class="cls-54" x="202.2" y="268.55" width="35.8" height="6.08"/><ellipse class="cls-46" cx="211.97" cy="273.11" rx="4.88" ry="4.56"/><ellipse class="cls-47" cx="211.97" cy="273.11" rx="2.44" ry="2.28"/><ellipse class="cls-46" cx="202.2" cy="273.11" rx="4.88" ry="4.56"/><ellipse class="cls-47" cx="202.2" cy="273.11" rx="2.44" ry="2.28"/><path class="cls-49" d="M237.35,271.59h-8.14v-3h-8.13V251.84h13.21a1.59,1.59,0,0,1,1.61,1.33l1.14,8.48a37,37,0,0,1,.31,4.71v5.23Z" transform="translate(0.65)"/><rect class="cls-50" x="229.86" y="268.55" width="8.14" height="3.04"/><ellipse class="cls-46" cx="229.86" cy="273.11" rx="4.88" ry="4.56"/><ellipse class="cls-47" cx="229.86" cy="273.11" rx="2.44" ry="2.28"/><path class="cls-50" d="M229.21,254.88h-4.06a.79.79,0,0,0-.82.76V260a1.15,1.15,0,0,0,1,1.11l3.92.82Z" transform="translate(0.65)"/><path class="cls-50" d="M237,261.65l-.91-6.77h-11a.79.79,0,0,0-.82.76V260a1.15,1.15,0,0,0,1,1.11l11.94,2.48C237.18,263,237.12,262.31,237,261.65Z" transform="translate(0.65)"/><path class="cls-41" d="M229.21,262l8,1.66c0-.66-.11-1.32-.19-2l-.91-6.77h-6.92Z" transform="translate(0.65)"/><path class="cls-48" d="M143,247.28h74.84a1.58,1.58,0,0,1,1.63,1.52V267a1.58,1.58,0,0,1-1.63,1.52H143a1.58,1.58,0,0,1-1.63-1.52V248.8A1.58,1.58,0,0,1,143,247.28Z" transform="translate(0.65)"/><path class="cls-49" d="M214.57,265.51H146.23A1.58,1.58,0,0,1,144.6,264h0a1.58,1.58,0,0,1,1.63-1.52h68.34A1.58,1.58,0,0,1,216.2,264h0A1.58,1.58,0,0,1,214.57,265.51Z" transform="translate(0.65)"/><path class="cls-55" d="M37,257.9C38.16,257.08,42,256,47.47,256l2.87-3.7a3.07,3.07,0,0,1,2.42-1.22H66.19a2.41,2.41,0,0,1,1.8.82l3.22,3.55a2.83,2.83,0,0,1,.67,1.31l.47,2.05-9.57,4.93H36v-4A2.28,2.28,0,0,1,37,257.9Z" transform="translate(0.65)"/><path class="cls-56" d="M50.34,252.34a3.07,3.07,0,0,1,2.42-1.22H66.19a2.41,2.41,0,0,1,1.8.82l3.08,3.4H69.41a15,15,0,0,0-1.77.1l-4.86.6H47.47Z" transform="translate(0.65)"/><path class="cls-41" d="M51.34,256H61.93a13.57,13.57,0,0,0,1.69-.1l3.32-.41a1,1,0,0,0,.59-1.56l-1.18-1.62a1.22,1.22,0,0,0-1-.53H54.45a1.22,1.22,0,0,0-1,.5l-2.37,3.14A.35.35,0,0,0,51.34,256Z" transform="translate(0.65)"/><path class="cls-56" d="M36,260.26c0-1.41,1.91-2.81,10.84-2.81H71.71a.67.67,0,0,1,.64.7v3.52l-12.12,1.4H36Z" transform="translate(0.65)"/><path class="cls-57" d="M36,262.37H65.9L71.57,261a.64.64,0,0,1,.76.53.7.7,0,0,1-.48.84l-5.74,1.41-.14,0H36a.71.71,0,0,1,0-1.41Z" transform="translate(0.65)"/><ellipse class="cls-45" cx="67.58" cy="262.72" rx="2.92" ry="3.22"/><path class="cls-46" d="M66.93,266.59a3.89,3.89,0,1,0-3.51-3.87A3.71,3.71,0,0,0,66.93,266.59Zm0-6.33a2.47,2.47,0,1,1-2.24,2.46A2.35,2.35,0,0,1,66.93,260.26Z" transform="translate(0.65)"/><ellipse class="cls-47" cx="67.58" cy="262.72" rx="1.28" ry="1.41"/><path class="cls-57" d="M46.83,261H62.14a.67.67,0,0,0,.64-.7h0a.67.67,0,0,0-.64-.7H46.83a.67.67,0,0,0-.64.7h0A.67.67,0,0,0,46.83,261Z" transform="translate(0.65)"/><path class="cls-57" d="M36,261h.64a.66.66,0,0,0,.63-.7h0a.66.66,0,0,0-.63-.7H36a.67.67,0,0,0-.64.7h0A.67.67,0,0,0,36,261Z" transform="translate(0.65)"/><rect class="cls-46" x="57.69" y="251.82" width="1.28" height="4.22"/><path class="cls-45" d="M36.67,258.15h.59a.71.71,0,0,1,0,1.41H36A2.24,2.24,0,0,1,36.67,258.15Z" transform="translate(0.65)"/><path class="cls-41" d="M50.34,252.34a4.19,4.19,0,0,1,.51-.52h1a.36.36,0,0,1,.25.58l-2.37,3.13a1.26,1.26,0,0,1-1,.51H47.47Z" transform="translate(0.65)"/><polygon class="cls-46" points="64.66 255.89 63.43 251.82 64.71 251.82 66.45 255.67 64.66 255.89"/><path class="cls-51" d="M71.88,256.8l.15.65H70.44a.67.67,0,0,1-.64-.71.67.67,0,0,1,.64-.7H71.6A3.13,3.13,0,0,1,71.88,256.8Z" transform="translate(0.65)"/><ellipse class="cls-45" cx="42.7" cy="262.72" rx="2.92" ry="3.22"/><path class="cls-46" d="M42.05,266.59a3.89,3.89,0,1,0-3.51-3.87A3.71,3.71,0,0,0,42.05,266.59Zm0-6.33a2.47,2.47,0,1,1-2.23,2.46A2.35,2.35,0,0,1,42.05,260.26Z" transform="translate(0.65)"/><ellipse class="cls-47" cx="42.7" cy="262.72" rx="1.28" ry="1.41"/><g class="cls-27"><path class="cls-28" d="M10,248.14h2v9H10Z" transform="translate(0.65)"/><path class="cls-29" d="M10,248.14v3.74a1.21,1.21,0,0,1,1,1.34v3.92H12v-9Z" transform="translate(0.65)"/><path class="cls-30" d="M15.69,257.61h0l-9.38,0c-.19,0-.35-.21-.35-.46a.41.41,0,0,1,.35-.45h0l9.38,0a.41.41,0,0,1,.35.45C16,257.4,15.88,257.61,15.69,257.61Z" transform="translate(0.65)"/><path class="cls-14" d="M16.23,250H5.78c-.33,0-.54-.46-.37-.83l1.37-3.08L8,243.29l2.61-5.89a.39.39,0,0,1,.74,0L14,243.29l1.25,2.8,1.36,3.08c.17.37,0,.83-.36.83Z" transform="translate(0.65)"/><path class="cls-16" d="M16.23,250H15l-1-2.65a1.92,1.92,0,0,0-1.69-1.26H6.78L8,243.29l2.61-5.89a.39.39,0,0,1,.74,0L14,243.29l1.25,2.8,1.36,3.08C16.76,249.54,16.55,250,16.23,250Z" transform="translate(0.65)"/><path class="cls-14" d="M10.63,234.17a.39.39,0,0,1,.74,0l2.06,4.63,2.05,4.64c.17.36,0,.83-.36.83H6.89c-.33,0-.54-.47-.37-.83l2.05-4.64Z" transform="translate(0.65)"/><path class="cls-16" d="M15.48,243.44l-2.05-4.64-2.06-4.63a.39.39,0,0,0-.74,0L8.57,238.8l-.74,1.68h3.54a2,2,0,0,1,1.71,1.27l1.13,2.53h.91c.32,0,.53-.47.36-.83Z" transform="translate(0.65)"/><path class="cls-14" d="M10.63,230.75a.39.39,0,0,1,.74,0L13,234.39,14.6,238c.16.37,0,.83-.37.83H7.77c-.32,0-.53-.46-.36-.83L9,234.39Z" transform="translate(0.65)"/><path class="cls-16" d="M14.6,238l-1.21-2.73-.41-.9-1.61-3.64a.39.39,0,0,0-.74,0L9,234.39l-.4.9h2.44a1.21,1.21,0,0,1,1,.78L13,238c.16.37.22.53.37.83h.89c.32,0,.53-.46.37-.83Z" transform="translate(0.65)"/><path class="cls-14" d="M10.63,227.46a.39.39,0,0,1,.74,0l1.17,2.65,1.18,2.64c.16.37,0,.83-.37.83H8.65c-.32,0-.53-.46-.36-.83l1.17-2.64Z" transform="translate(0.65)"/></g><path class="cls-58" d="M319.57,253.55v2.09a.54.54,0,0,0,.57.51.55.55,0,0,0,.57-.51v-2.09Z" transform="translate(0.65)"/><path class="cls-58" d="M334.42,253.55v2.09a.55.55,0,0,0,.57.51.54.54,0,0,0,.57-.51v-2.09Z" transform="translate(0.65)"/><path class="cls-59" d="M341.07,254.13H313.93a.63.63,0,0,1-.66-.58V239.77h28.46v13.78A.63.63,0,0,1,341.07,254.13Z" transform="translate(0.65)"/><path class="cls-60" d="M335,239.77v12a.92.92,0,0,1-1,.86H313.27v.91a.65.65,0,0,0,.68.6h27.1a.64.64,0,0,0,.68-.6V239.77Z" transform="translate(0.65)"/><path class="cls-61" d="M341.21,256.14H339.3a.49.49,0,0,1-.52-.46V239.77h3v15.91A.49.49,0,0,1,341.21,256.14Z" transform="translate(0.65)"/><path class="cls-61" d="M315.7,256.14h-1.91a.49.49,0,0,1-.52-.46V239.77h3v15.91A.49.49,0,0,1,315.7,256.14Z" transform="translate(0.65)"/><path class="cls-62" d="M340.49,239.77v15.09a.5.5,0,0,1-.53.47h-1.18v.34a.5.5,0,0,0,.53.47h1.89a.5.5,0,0,0,.53-.47v-15.9Z" transform="translate(0.65)"/><path class="cls-62" d="M315,239.77v15.09a.51.51,0,0,1-.54.47h-1.18v.34a.51.51,0,0,0,.54.47h1.88a.5.5,0,0,0,.53-.47v-15.9Z" transform="translate(0.65)"/><path class="cls-63" d="M344.65,256.05a.53.53,0,0,1-.57-.5V242.09a.54.54,0,0,1,.57-.51.55.55,0,0,1,.57.51v13.46A.54.54,0,0,1,344.65,256.05Z" transform="translate(0.65)"/><path class="cls-64" d="M344,241.1H310.7a.38.38,0,0,1-.4-.35v-2a.38.38,0,0,1,.4-.35H344a.37.37,0,0,1,.39.35v2A.37.37,0,0,1,344,241.1Z" transform="translate(0.65)"/><path class="cls-65" d="M344.06,238.44h-4.58v1.31a.33.33,0,0,1-.35.31H310.3v.72a.35.35,0,0,0,.36.32h33.4a.34.34,0,0,0,.35-.32v-2A.34.34,0,0,0,344.06,238.44Z" transform="translate(0.65)"/><path class="cls-66" d="M347.27,245.43H342a.93.93,0,0,1-1-.87v-6.5a.93.93,0,0,1,1-.87h5.25a.94.94,0,0,1,1,.87v6.5A.94.94,0,0,1,347.27,245.43Z" transform="translate(0.65)"/><path class="cls-67" d="M347.27,237.19H346v6.44a.94.94,0,0,1-1,.88H341v.05a.93.93,0,0,0,1,.87h5.25a.94.94,0,0,0,1-.87v-6.5A.94.94,0,0,0,347.27,237.19Z" transform="translate(0.65)"/><path class="cls-68" d="M336.21,254.13h-17.3a.46.46,0,0,1-.48-.42v-4.47a.46.46,0,0,1,.48-.42h17.3a.45.45,0,0,1,.47.42v4.47A.45.45,0,0,1,336.21,254.13Z" transform="translate(0.65)"/><path class="cls-69" d="M336.21,254.13h-17.3a.46.46,0,0,1-.48-.42v-1.38h18.25v1.38A.45.45,0,0,1,336.21,254.13Z" transform="translate(0.65)"/><path class="cls-69" d="M336.2,248.82h-2.9a.46.46,0,0,1,.49.43v4.45a.46.46,0,0,1-.49.43h2.9a.45.45,0,0,0,.48-.43v-4.45A.45.45,0,0,0,336.2,248.82Z" transform="translate(0.65)"/><path class="cls-70" d="M333.79,252.33v1.37a.46.46,0,0,1-.49.43h2.9a.45.45,0,0,0,.48-.43v-1.37Z" transform="translate(0.65)"/><path class="cls-71" d="M346.05,240.8h-2.82a.55.55,0,0,1-.57-.51.54.54,0,0,1,.57-.5h2.82a.54.54,0,0,1,.57.5A.55.55,0,0,1,346.05,240.8Z" transform="translate(0.65)"/><path class="cls-71" d="M346.05,242.49h-2.82a.55.55,0,0,1-.57-.51.54.54,0,0,1,.57-.5h2.82a.54.54,0,0,1,.57.5A.55.55,0,0,1,346.05,242.49Z" transform="translate(0.65)"/><g class="cls-27"><path class="cls-14" d="M308.69,240.12a4,4,0,0,0-2.35-3.61c0-.13,0-.26,0-.39a4.07,4.07,0,0,0-4.12-4H302a4.17,4.17,0,0,0-8,0h-.21a4.05,4.05,0,0,0-4.14,4c0,.13,0,.26,0,.38a3.94,3.94,0,0,0,0,7.23,2.53,2.53,0,0,0,0,.28,4.6,4.6,0,0,0,4.67,4.53,4.73,4.73,0,0,0,1.56-.26,2.38,2.38,0,0,0,.76-.43,2.06,2.06,0,0,1,2.6,0,2.46,2.46,0,0,0,.76.42,4.75,4.75,0,0,0,5.78-2.4,3.87,3.87,0,0,0,.42-1.76c0-.12,0-.24,0-.35a4,4,0,0,0,2.43-3.63Z" transform="translate(0.65)"/><path class="cls-16" d="M308.69,240.12a4,4,0,0,0-2.35-3.61c0-.13,0-.26,0-.39a4,4,0,0,0-2.82-3.79v.38a13.34,13.34,0,0,1-13.42,13.12,4.76,4.76,0,0,0,5.83,2.42,2.38,2.38,0,0,0,.76-.43,2.06,2.06,0,0,1,2.6,0,2.46,2.46,0,0,0,.76.42,4.75,4.75,0,0,0,5.78-2.4,3.87,3.87,0,0,0,.42-1.76c0-.12,0-.24,0-.35A4,4,0,0,0,308.69,240.12Z" transform="translate(0.65)"/><path class="cls-28" d="M301.89,243a.55.55,0,0,0-.78-.75l-.74.51-1.29.87-.35-3.21-.16-1.48a.56.56,0,0,0-1.1,0l-.15,1.48-.36,3.22-1.29-.88-.74-.51a.55.55,0,0,0-.78.75l.52.72,1.79,2.47v11h3.11v-11l1.8-2.48Z" transform="translate(0.65)"/><path class="cls-29" d="M301.11,242.26l-.74.51-1.29.87-.35-3.21-.16-1.48a.56.56,0,0,0-1.1,0l-.15,1.48-.36,3.22-1.29-.88-.74-.51a.55.55,0,0,0-.78.75l.52.72,1.77,2.44A1.55,1.55,0,0,1,298,247.7v9.48h1.55v-11l1.8-2.48.52-.72A.55.55,0,0,0,301.11,242.26Z" transform="translate(0.65)"/><path class="cls-30" d="M303.78,257.6H292.26a.43.43,0,0,1-.44-.42.43.43,0,0,1,.44-.42h11.52a.42.42,0,0,1,.43.42A.42.42,0,0,1,303.78,257.6Z" transform="translate(0.65)"/></g></svg>