<svg xmlns="http://www.w3.org/2000/svg" width="248" height="200" viewBox="0 0 548 200" id="hd">
	<g fill="none" fill-rule="evenodd">
		<path fill="#505A63" d="M351 146c1 1 3 2 4 3l3 3c3 3 3 5 5 8l14 1c-1-5-4-9-7-12l-2-3v-1l-1 1h-16zm-37 15h13c2-4 3-6 5-9 1-1 2-2 4-3 1-1 3-2 3-3h-16v-1c-4 4-8 10-9 16z"/>
		<path fill="#505964" d="M114 164c1-8 7-14 13-17s13-4 20-2c2 1 18 18 20 18h13v-25c-2-1-24 0-25 0-10 0-25-1-33 3-6 2-10 7-12 13-1 2-2 6-2 9l6 1z"/>
		<path fill="#0CA678" d="M470 5H194v129h276"/>
		<path fill="#343A40" d="M240 161h23v8h-23v-8zm-12-19h35v4h-35v-4zm-27 0h21v4h-21v-4zm116 4h-49v-4h53l-4 4zM196 16V5h274v128H196V16zm-6 47c-2-4-1-7-6-5v38c0 1-1 15-1 15v1c1 2 1 15 1 17v4c0 2 0 1-1 2v11h-24c2 2 12 6 13 23h8v5h116c1-1 1-4 1-5h-29v-8h41c-1 6-2 9-2 15 0 1 5 1 6 1 0-5 0-12 2-16 1-6 5-12 9-15 4-2 3-4 8-4h24c4 0 3-1 5 1 1 1 3 2 4 3l2 3c3 3 6 7 7 12 1 4 1 11 1 16h6v-6h40v-10h9v10h22c3 0-4 1 6 1v-9h-5v2h-17v-4h9v-7h28v-8h-95c-2 0-5 1-6-1l-4-3h105V1H193v145h-2v-9c0-3-1-2-1-4v-15c0-4-1-5-1-9-1-5 0-14 0-19V70h1c1 0 0 0 0-1 1-1 0-4 0-6zm-52 92c9-1 17 6 18 14 1 10-6 17-15 18s-17-6-18-14c-1-10 6-18 15-18zm-26 13c-2 17 11 31 27 31s29-13 29-30c-1-10-6-16-10-19-3-3-6-5-11-6-7-2-14-1-20 2-10 4-14 12-15 22z"/>
		<path fill="#343A40" d="M328 172c-1-9 6-17 14-18 10 0 18 7 18 15 1 10-6 17-15 18s-17-6-17-15zm3-26c-1 1-3 2-4 3s-3 2-4 3c-2 3-3 4-5 8-7 20 8 39 26 39 19 0 34-19 26-39-1-3-2-5-5-8l-3-3c-1-1-3-2-4-3-5-2-7-3-14-3s-8 1-13 3zm-159-19v6h-35c-7 0-15 1-20 4-3 2-6 6-8 10H69c-1 0-5 0-6 4-1 1-1 6-1 8 1 5 5 9 10 10 3 1 5 0 9 0 6-1 25 0 27-1 1-2 1-4 1-6s1-7 2-8c2-6 5-10 11-13 3-1 7-2 11-2h47v-11l-1-1h-6c-1 1 0 0-1 0z"/>
		<path fill="#0CA678" stroke="#343A40" stroke-width="2" d="M105 51c-2 5 1 4-1 7l-9 10c3 1 13 3 15 2 2-4 0-9 5-11 6-2 14-2 21-2h13c17 0 15 1 15 17-1 6-1 23-1 26v27l16 1c1-2 1-2 1-5 0-8 2-5 2-14 1-10 2-59 0-63-2-1-4-2-8-2-14-1-51 0-62 3-4 2-4 2-7 4zM76 97c-1 1-5 8-5 10-2 4-3 7-3 12-1 9-1 21 2 29l8-1c-1-8-2-6-2-18 1-6 5-4 11-4 1-5 6-13 7-17 0-9 4-20 9-28 0-1-8-8-8-9-2 3-8 12-10 16-3 5-3 5-9 10z"/>
		<path fill="#FEFEFE" d="M296 174c1 1-1 1 1 1l1-1h9v2c0-6 1-9 2-15h-41v8h29c0 1 0 4-1 5z"/>
		<path fill="#353A40" d="M333 173c-3-15 19-18 22-4 3 15-20 18-22 4zm8-16c-20 4-13 33 6 28 7-1 13-9 11-18-1-6-9-13-17-10zm-212 16c-3-15 19-18 22-4 2 15-20 18-22 4zm7-16c-19 4-12 33 7 28 7-1 13-9 11-18-2-6-9-13-18-10z"/>
		<path fill="#FEFEFE" stroke="#343A40" stroke-width="2" d="M76 97c7-1 8-3 10-8 3-4 5-9 8-12 2-4 4-7 5-9l7-10c2-3 3-5-1-6-4 4-13 16-16 21-2 4-4 8-7 12l-6 12z"/>
		<path fill="#FFF9DB" stroke="#343A40" stroke-width="2" d="M73 148c5-1 10 0 13-1l-2-26c-3 0-9 2-11 5-1 1-1 3-1 4 0 9 1 14 1 18z"/>
		<path fill="#FEFEFE" d="M317 146c1-2 2-3 4-4h-53v4h49zm-185 26c-2-10 14-13 15-2 2 10-13 12-15 2zm-3 1c2 14 24 11 22-4-3-14-25-11-22 4zm207-1c-2-10 14-13 16-2 1 10-14 12-16 2zm-3 1c2 14 25 11 22-4-3-14-25-11-22 4zm-93-4h23v-8h-23"/>
		<path fill="#FEFEFE" d="M136 157c9-3 16 4 18 10 2 9-4 17-11 18-19 5-26-24-7-28zm2-2c-9 0-16 8-15 18 1 8 9 15 18 14s16-8 15-18c-1-8-9-15-18-14zm203 2c8-3 16 4 17 10 2 9-4 17-11 18-19 5-26-24-6-28zm-13 15c0 9 8 16 17 15s16-8 15-18c0-8-8-15-18-15-8 1-15 9-14 18zm-100-26h35v-4h-35"/>
		<path fill="#353A40" d="M345 176c1 2-1 2-2 1v-1h2zm5-3c0 1 0 1-1 2-1 0-2 0-1-2h2zm-11 2c-1 0 0 0-1-1l1-1h1v2h-1zm4-7c4-1 5 5 2 6-2 0-4-1-4-2-1-2 0-3 2-4zm5 1c0-1 0-2 1-2s1 0 1 2h-2zm-10 0c0-2 0-2 2-2v2h-2zm6-5c2 0 1 2 1 2h-2v-2h1zm-8 8c2 10 17 8 16-2-2-11-18-8-16 2zm-196 4c1 0 1 0 0 1 0 1 0 1-1 0s0-2 1-1zm4-3h2c0 1 0 1-1 2-1-1-2-1-1-2zm-9 2c-1 0-1 0-1-1v-1h2v2h-1zm4-7c4-1 5 5 1 6s-5-5-1-6zm6-1c1 0 1 0 1 2h-2c-1-1 0-2 1-2zm-11 2c-1-2 0-2 2-2v2h-2zm7-4c0 1-1 1-1 1h-1s-1 0 0-2c0 0 1 0 2 1zm-9 7c2 10 17 8 15-2-1-11-17-8-15 2z"/>
		<path fill="#FEFEFE" d="M473 146v7h4v-9c0-1 0-4 1-3h1c1 1 0 10 1 12h7v-13h-11s0-2 1 1v5h-4zm-149-1l1 1h6c5-1 6-3 13-3s9 2 14 3h6c1 0 0 0 1-1-1 0-3-1-4-2-2-2-1-1-5-1h-24c-5 0-4 2-8 3zm-123 1h21v-4h-21m-62 26c-4 1-3 7 1 6s3-7-1-6zm204 0c-2 1-3 2-2 4 0 1 2 2 4 2 3-1 2-7-2-6z"/>
		<path fill="#059067" d="M169 112l3 1v-11c-3 0-3 1-3 3v7z"/>
    <path fill="#FCFCFC" d="M139 177c1 1 1 1 1 0 1-1 1-1 0-1-1-1-2 0-1 1zm0-11h1s1 0 1-1c-1-1-2-1-2-1-1 2 0 2 0 2zm204 0h2s1-2-1-2h-1v2zm5 7c-1 2 0 2 1 2 1-1 1-1 1-2h-2zm-214-4h2v-2c-2 0-3 0-2 2zm204 0h2v-2c-2 0-2 0-2 2z"/>
		<path fill="#FBFBFC" d="M145 175c1-1 1-1 1-2h-2c-1 1 0 1 1 2z"/>
		<path fill="#FCFCFC" d="M338 174c1 1 0 1 1 1h1v-2h-1l-1 1zm-204 0c0 1 0 1 1 1h1v-2h-2v1zm10-5h2c0-2 0-2-1-2s-2 1-1 2zm199 7v1c1 1 3 1 2-1h-2z"/>
		<path fill="#FBFBFC" d="M348 169h2c0-2 0-2-1-2s-1 1-1 2z"/>
		<path fill="#0CA678" stroke="#343A40" stroke-width="2" d="M102 68c-3 4-5 10-8 14-2 4-5 9-7 13-3 5-4 8-4 15 0 13 1 25 1 37h25c2-4 5-8 8-10 5-3 15-4 21-4h34V67c0-5 1-11-2-14-1-1-3-1-5-2h-10c-12 0-38-1-45 7-2 2-7 8-8 10z"/>
		<path fill="#FEFEFE" stroke="#343A40" stroke-width="2" d="M106 70c-7 11-12 18-17 29-3 7 3 6 11 5 3 0 9-1 11-2s2-4 5-5h4l33-4c5 0 8-1 10-4 3-4 6-28 3-31-2-5-40-1-47 0-1 0-3 1-4 1-2 1-8 9-9 11z"/>
		<path fill="#353A40" d="M100 68c-7 0-5 2-6 9v4c1 0 0 0 0 1v5c0 5 2 4 6 4 4 1 6 1 6-3l1-15c0-3 0-3-1-4-2-1-4-1-6-1z"/>
		<path fill="#099268" stroke="#343A40" stroke-width="2" d="M174 98c-4 0-6 0-6 2-1 12-1 12 5 12 2 0 2-1 2-8 0-2 0-5-1-6z"/>
		<path fill="#099268" d="M196 12V4h274v12H204v116h-8"/>
	</g>
</svg>
