<svg id="Layer_1" data-name="Layer 1" xmlns="http://www.w3.org/2000/svg" viewBox="0 0 600 362"><defs><style>.cls-1,.cls-3,.cls-4{fill:#3cbe72;}.cls-1,.cls-2{stroke:#1e4179;stroke-linecap:round;stroke-linejoin:round;}.cls-1{stroke-width:9.61px;}.cls-2{fill:none;stroke-width:9.97px;}.cls-3,.cls-4{isolation:isolate;font-family:Impact;}.cls-3{font-size:64.35px;}.cls-4{font-size:80.43px;}</style></defs><path class="cls-1" d="M120.1,11a58.05,58.05,0,0,0-58,58.05h0c0,41.08,57.92,116,57.92,116s58.18-74.87,58.18-115.95A58.06,58.06,0,0,0,120.1,11Zm-.24,87.24a29,29,0,1,1,29-28.95,29,29,0,0,1-29,28.95h0"/><path class="cls-2" d="M166.7,242.29H45.79A45.08,45.08,0,0,0,.71,287.37h0v1.53A45.08,45.08,0,0,0,45.79,334H166.7"/><path class="cls-2" d="M172.28,152.13H498.67a45.08,45.08,0,0,1,45.07,45.09h0a45.07,45.07,0,0,1-45.07,45.07H313.06"/><text class="cls-3" transform="translate(193.24 273.53)">МЫ</text><text class="cls-4" transform="translate(193.24 354.41)">ПЕРЕВОЗИМ!</text></svg>