<svg xmlns="http://www.w3.org/2000/svg" width="248" height="200" viewBox="0 0 548 200" id="porter">
	<g fill="none" fill-rule="evenodd">
		<path fill="#505964" d="M138 164h68c-1-10-14-30-33-31-18 0-34 15-35 31z"/>
		<path fill="#069168" d="M217 108c0-4-3-7-7-7-3 0-7 0-8 6-1 2 0 5 3 7 5 3 12 1 12-6z"/>
		<path fill="#0CA678" stroke="#343A40" stroke-width="2.835" d="M230 139h244V1H230z"/>
		<path fill="#343A40" d="M111 136h-1c-3-1-10 0-14 0H82c-5 5-7 1-6 14h1l1 1c0 3 1 5 2 7 1 3 4 4 6 5 8 3 3 1 7 1s43 3 47 2v-2c1-7 2-10 5-14 7-9 16-13 27-13 8 0 10 1 16 4l2 2c9 10 7 7 13 21 1 3 2 8 2 11v7h2c1 0 1 0 1-1 2-2 2-14 1-18l9-2v4l-6 1c-1 4 0 5 2 8 1 1 5 1 8 1h53c6 0 3 0 6-3v-19h2v19l3 3h43l3-3v-19h8c-1 4-4 6-5 12 5 0 7 0 9-4l4-8c2 1 7 5 7 6l2-2h2v-1c-1 0-3-2-4-3h10c1 1 1 0 1 1 2 0 2-1 4-1s2 1 4 1c1-1 8-1 10-1-1 2-2 2-3 3 1 1 1 1 2 1 0 1 1 1 1 2 1-2 6-6 7-6 2 1 4 5 5 8 1 2 1 2 3 3 1 1 3 1 5 0 0-3-3-8-4-11h8v19h44v-20h-4v-5h6c1 2 2 6 3 8 1 3 3 2 7 2v-14H206l-7-7c-2 0 0 0-1-1-3-2-6-4-10-5-3-3-15-4-19-4-16 2-22 10-25 10-6 1-29-1-33 0z"/>
		<path fill="#0CA678" stroke="#343A40" stroke-width="2" d="M145 54c0 3-8 8-10 10-6 5-16 15-22 21l-6 6c2 1 5 4 8 4 9-9 18-19 28-27 17-13 16-12 40-14h16c11 0 9 1 9 11 0 12 2 23 2 35 3 0 8 2 8 9-1 6-6 8-9 7-1 15-5 13-12 19l9 8h18V98c0-13-2-33-3-42-1-4-4-7-5-8-7-5-46-1-53 0-2 0-16 3-18 6z"/>
		<path fill="#0CA678" stroke="#343A40" stroke-width="2" d="M96 94c0 1-1 3-2 3-1 2-4 3-4 9 0 4-2 3-5 8-3 6-5 16-2 22h29c1-13 0-23 3-36 0-2 1-3 1-4-1-1-8-4-9-5-2 3-6 4-11 3z"/>
		<path fill="#FDFDFD" stroke="#343A40" stroke-width="2" d="M95 96c4 1 11 0 13-3 4-3 3-3 5-5 6-6 20-19 25-24 1-1 6-4 9-7 0-1 2-1 1-2l-2-2c-4 1-24 18-27 20-4 4-22 19-24 23z"/>
		<path fill="#FFF9DB" stroke="#343A40" stroke-width="2" d="M86 136h12c0-2 2-14 2-17s1-7 1-8c-3-2-7 0-8 1-5 4-6 8-7 15v9z"/>
		<path fill="none" d="M118 95v1l5 2 1-11-2 2c0 1-1 1-1 2-1 1-3 2-3 4zm241 61c2-1 5-2 7-2 0-1 0 0-1-1h-10c1 1 3 3 4 3z"/>
		<path fill="none" d="M381 156c1-1 2-1 3-3-2 0-9 0-10 1 2 0 5 1 7 2z"/>
		<path fill="#0CA678" stroke="#343A40" stroke-width="2" d="M114 94c1 1 3 2 3 2 1 0 12-13 12-13l17-15c4-3 8-6 15-9 8-2 30-2 41-2 2 0 3 1 3 2l-2 27c0 1 0 1-2 1-21 1-36 2-54 6-5 1-13 3-16 5-2 2-5 0-8 0l-6-2-4-2c-4 9-3 30-2 42 4 0 27 1 33 0 3 0 9-8 25-10 12 0 19 3 29 9 2 0 8-5 9-6 2-4 2-8 2-13-4 0-8-4-7-9 0-3 2-4 3-5 5-3 5 0 5-4V61c0-8 0-9-10-9-15 0-35-1-48 7-8 5-18 14-24 20l-14 15c-1 0-1 0 0 0z"/>
		<path fill="#2E383F" d="M126 81c-1 2-2 3-2 6l-1 10c3 1 6 2 8 0v-3c2 0 3 1 3-2V76c-1-1 0-1-2-1h-1c-3 0-4 3-5 6z"/>
		<path fill="#33393F" d="M366 160c10-2 18 5 19 13 2 9-5 17-12 19-22 4-27-28-7-32zm-10-4c-1 1-3 3-4 5-1 0-2 2-2 3-2 2-3 4-3 7-3 22 19 34 35 23 8-5 9-9 9-12 1-6 2-9 0-15-2-4-5-8-9-11-3-2-9-4-13-4-5 0-8 2-13 4z"/>
		<path fill="#FDFDFD" d="M368 180h3l3 7c-4 1-5 1-8 0l2-7zm14-5c-1 4-1 6-3 8l-6-5v-2l9-1zm-16 3l-6 6c-2-2-3-4-3-8h8l1 2zm5-3c1 4-3 4-4 2s1-4 4-2zm-12-5c1-3 3-5 6-5 1 1 1 3 2 5s0 2-1 4l-7-4zm13-6c4 1 4 3 7 5-1 1-3 2-5 3s-1 1-4 0l2-8zm-17 13c0 2 1 4 2 6 7 13 28 7 27-8-2-19-30-17-29 2z"/>
		<path fill="#33393F" d="M355 177c-1-19 27-21 29-2 1 15-20 21-27 8-1-2-2-4-2-6zm-1 1c1 8 8 14 17 13 8-1 15-8 14-17-3-20-33-17-31 4z"/>
		<path fill="#F1F1F2" d="M354 178c-2-21 28-24 31-4 1 9-6 16-14 17-9 1-16-5-17-13zm12-18c-20 4-15 36 7 32 7-2 14-10 12-19-1-8-9-15-19-13z"/>
		<path fill="#343A40" d="M359 170l7 4c1-2 2-2 1-4s-1-4-2-5c-3 0-5 2-6 5zm14 6v2l6 5c2-2 2-4 3-8l-9 1zm-13 8l6-6-1-2h-8c0 4 1 6 3 8zm6 3c3 1 4 1 8 0l-3-7h-3l-2 7zm4-15c3 1 2 1 4 0s4-2 5-3c-1-1-3-4-7-5l-2 8zm1 3c-2-2-5 0-4 2s6 1 4-2zm-202-23c11-1 20 7 21 17 2 11-7 20-16 21-12 1-21-7-22-17-1-11 7-20 17-21zm-25 12c-2 10 2 19 7 25 4 4 12 9 21 9 16 0 31-16 26-34-5-21-30-27-45-14-7 7-8 11-9 14z"/>
		<path fill="#FDFDFD" d="M170 176h3c1 2 3 7 4 9-5 1-5 1-10 0 0-2 2-7 3-9zm-4-4c1 1 1 1 1 2l-6 7c-2-2-4-4-4-7v-3c1 0 9 0 9 1zm9 1c1-3 1-2 11-3 0 4-1 8-4 10l-3-3-4-4zm-6-3c3-2 5-1 4 3-2 1-2 1-4 0v-3zm-10-5c1-4 3-7 8-7l2 9c-4 2-1 1-10-2zm15-8c2 0 4 1 5 2s3 3 3 4l-7 5-2-2 1-9zm-5-3c-8 1-16 9-15 19 1 9 9 16 20 15 8-1 16-9 14-19-1-9-9-16-19-15z"/>
		<path fill="#33393F" d="M169 154c10-1 18 6 19 15 2 10-6 18-14 19-11 1-19-6-20-15-1-10 7-18 15-19zm0-1c-9 1-17 9-16 20 1 9 10 17 20 16s18-10 17-20c-2-9-10-17-21-16z"/>
		<path fill="#F5F5F6" d="M169 153c11-1 19 7 21 16 1 10-7 19-17 20s-19-7-20-16c-1-11 7-19 16-20zm0-1c-10 1-18 10-17 21 1 10 10 18 22 17 9-1 18-10 16-21-1-10-10-18-21-17z"/>
		<path fill="#343A40" d="M175 173l4 4 3 3c3-2 4-6 4-10-10 1-10 0-11 3zm-16-8c9 3 6 4 10 2l-2-9c-5 0-7 3-8 7zm11 11c-1 2-3 7-3 9 5 1 5 1 10 0-1-2-3-7-4-9h-3zm3-10l2 2 7-5c0-1-2-3-3-4s-3-2-5-2l-1 9zm-16 8c0 3 2 5 4 7l6-7c0-1 0-1-1-2h-9v2zm12-4v3c2 1 2 1 4 0 1-4-1-5-4-3zm40-70h2l-1 16h-2"/>
		<path fill="#099268" d="M232 11V3h240v12H241v123h-9"/>
	</g>
</svg>
  
