<svg xmlns="http://www.w3.org/2000/svg" width="248" height="200" viewBox="0 0 548 200" id="gazel">
	<g fill="none" fill-rule="evenodd">
		<path fill="#343A40" d="M228 142h235.234v6.837H228z"/>
		<path fill="#0CA678" stroke="#343A40" stroke-width="2.835" d="M226 137h269V2H226z"/>
		<path fill="#343A40" d="M377 148c6-4 1-3 12-3h15c0 4 0 7 2 11h-29v-8zm-149-3h69v11h-14v-2h-55v-9zm191 0c-1 2-4 10-7 11-8 1-7-5-7-11h14zm-42 0h2l-2 1v-1zm-5 9c-1-1-2-4-3-5-1-2-3-3-4-4h7v9zm-71-9h15c-4 4-5 5-8 11h-7v-11zM134 86c0-2 5-5 7-7l21-18c13-7 21-6 35-6 9 0 10-2 10 2 1 18 0 36 0 54 0 6 1 7-1 12-2 4-3 7-3 11l-1 25-45-1c-1-2-2-8-3-10-4-7-7-10-12-16-3-2-8-4-10-5 0-27 0-17 5-17 7 1 6-3 6-6 0-1 1-9-1-16-4-5-7-3-8-2zm-79 55c-1 6-2-3-2 12l3 1c0 3 1 6 0 8 0 3-2 2-2 5 1 7 7 6 9 6l21 2c6 1 1-1 6-1v-1c-2 0-1 0-3-1 3-3 1-14 7-22 8-9 19-12 31-9 7 2 12 7 16 13 1 3 3 7 4 10h-3v1h3c1 4 1 8 1 12h137v-13h13c13 0 7-1 9 3h2c1-1 1-1 1-3h7c2-3 3-5 5-8h-8c1-3 7-9 10-11s14 0 19 0c4 0 16-1 19 1s7 6 9 10h-8c2 3 3 4 5 8h7c0 2 0 3 2 4 3-2 1-2 2-4h78l1 1h7v-10c-8 0-8 1-8 1h-40c0-3 2-5 3-7 2-5 1-4 6-4h70v-5H224v14h-4v-8c0-3 1-2 1-6h-1c0 4 0 2-1 4v15h-16c0-6 1-16 1-20 0-9 1-10 3-18 2-3 1-46 1-55 0-7 1-12-1-12-10 0-28-1-36 2-13 4-21 14-32 23-7 6-7 6-8 11 0 5-7 5-8 11-1 2-1 6 1 7 2 3 5 1 7 1v18c-7-1-13-3-21-1-7 1-11 3-17 7-5 3-5 5-7 5-10 1-8-1-22 2-4 1-6 3-9 3v-2z"/>
		<path fill="#0CA678" d="M133 86c2 0 5-3 9 2 0-4 0-6 3-8 2-2 5-4 6-6l8-7c7-5 4 6 3 16v11c-1 6 1 9-6 10-5 1-10 2-13 0 0 3 1 6-6 6-5-1-6-9-6 17 15 6 22 18 25 32h48l1-25c1-4 2-7 3-11 2-5 1-6 1-12 0-18 1-36 0-54 0-4-1-3-10-3-14 0-26-1-37 7l-11 8-11 10c-2 2-7 5-7 7z"/>
		<path fill="#0CA678" stroke="#343A40" stroke-width="2" d="M55 141v2c3 0 5-2 9-3 14-3 12-1 22-2 8-1 12-18 45-10v-19c-2 1-5 2-7-1-2-1-2-5-1-7 1-6 8-6 8-11 2-3 5-6 8-9 3-4 20-21 33-25 8-3 22-2 32-2 4 0 4 0 4 5 0 13 2 55 0 62-3 8-4 9-4 18 0 4-1 15-1 21h16v-16c1-2 1 0 1-4V59c0-9 0-12-12-13-9 0-22 1-31 1-7 1-12 3-19 7-19 18-36 30-47 43-8 4-23 13-30 17-2 6-3 11-5 14-2 2-10 6-14 6 1-3 4-10 7-13l-8-1c-3 4-5 16-6 21z"/>
		<path fill="#343A40" d="M113 157c21-5 29 27 8 32-22 5-30-27-8-32zm-23 16v1c1 8 3 14 9 19 13 11 31 8 40-5 5-8 5-14 3-23v-1c-6-12-16-20-30-18-6 2-12 5-16 9-5 7-5 10-6 18zm247-16c21-5 28 27 7 32-21 6-29-27-7-32zm-17-1c-2 3-3 5-5 8-6 18 7 36 25 36 19 0 31-18 26-36-2-4-3-5-5-8-5-4-9-10-21-9-12 0-16 6-20 9z"/>
		<path fill="#FEFEFE" stroke="#343A40" stroke-width="2" d="M168 101c6 0 17-2 20-2 11-2 10-5 11-13 0-2 0-4 1-6 2-19 2-20-7-20-8 0-16 0-22 2-3 1-4 2-4 5l-2 31c0 2 0 4 3 3z"/>
		<path fill="#495561" stroke="#495561" stroke-width=".283" d="M90 173c1-8 1-11 6-18 4-4 10-7 16-9 14-2 24 6 30 18h3c-1-3-3-7-4-10-4-6-9-11-16-13-12-3-23 0-31 9-6 8-4 19-7 22 2 1 1 1 3 1z"/>
		<path fill="#343A40" d="M114 184c-1-3 5-3 5-1 1 3-5 3-5 1zm10-3c-1-2 0-6 4-5 0 2 0 2-1 4-1 1-2 1-3 1zm-14 0c-2 0-2 0-4-2 0-1-1-1 0-3 2-2 4 2 4 5zm5-15c8-2 12 11 3 13-8 2-11-10-3-13zm13 4c-2 1-2 1-4-1-1-2-1-2 0-3 2-2 4 2 4 4zm-22 0c-1-1 0-6 4-4 0 1 0 2-1 3-1 2-1 2-3 1zm9-8c1-2 6 0 4 2-1 1-7 0-4-2zm-11 14c3 16 29 11 26-6-4-17-30-12-26 6z"/>
		<path fill="#FEFEFE" stroke="#343A40" stroke-width="2" d="M101 99c5 0 10-2 14-4 6-4 15-12 20-16 2-2 9-8 16-14 3-2 6-4 8-6 1-1 2-1 1-2 0-1-1-3-2-3-14 7-42 31-57 45z"/>
		<path fill="#0CA678" stroke="#343A40" stroke-width="2" d="M69 121c8-8 8-6 16-9l24-14c-8 0-11 0-17 3-5 2-12 4-19 8-6 3-11 7-14 11 0 1-1 1 1 1h9z"/>
		<path fill="#FEFEFE" d="M338 165c12-3 16 14 5 17-12 3-16-14-5-17zm12 3c-3-4-1-3 0-5-2-2-3-3-6-3-1 2 0 3-4 3-3 0-2-1-3-3-3 0-4 1-6 2 1 2 1 1 2 3 0 0-1 7-6 4-1 3-1 5 0 8 1 1-1 0 1 0s2 0 3 2c2 3 1 3 0 5 2 1 3 2 6 3 1-2 0-3 3-3 4 0 3 1 4 3l6-3c-1-2-3-1-1-5 2-3 3-3 5-1 1-3 1-5 0-8-1-1-2 1-4-2z"/>
		<path fill="#343A40" d="M338 186c1 0 0-1 2-1 3 0 2 1 3 1-1 2-4 2-5 0zm12-4c-1-1 0-1 0-2 1-2 1-1 2-2 1 2 0 5-2 4zm-20-2c1 1 1 1 1 2-2 1-3-2-3-4 2 1 1 0 2 2zm21-16c1 1 2 3 2 4-2 0-2 0-3-2 0-1 0-1 1-2zm-22 4c-1-1 0-4 2-3v2c-1 2-1 1-2 1zm2-6c2-1 3-2 6-2 1 2 0 3 3 3 4 0 3-1 4-3 3 0 4 1 6 3-1 2-3 1 0 5 2 3 3 1 4 2 1 3 1 5 0 8-2-2-3-2-5 1-2 4 0 3 1 5l-6 3c-1-2 0-3-4-3-3 0-2 1-3 3-3-1-4-2-6-3 1-2 2-2 0-5-1-2-1-2-3-2s0 1-1 0c-1-3-1-5 0-8 5 3 6-4 6-4-1-2-1-1-2-3zm12-2c-1 2-4 2-5 0 1 0 0-1 2-1 3 0 2 1 3 1zm-18 15c1 20 32 18 31-3-2-20-33-18-31 3z"/>
		<path fill="#343A40" d="M340 179h1v1h-1v-1zm5-3h1v1h-1v-1zm-9 0v1h-1c-1-1 0-1 1-1zm3-6c5-3 7 5 3 7-5 2-8-5-3-7zm7-1v2h-1c0-2 0-2 1-2zm-10 0v2h-1c-1-2-1-2 1-2zm5-2v1h-1c-1-2 0-2 1-1zm-3-2c-11 3-7 20 5 17 11-3 7-20-5-17z"/>
		<path fill="#FAFAFA" d="M114 158c20-4 25 27 5 30s-25-27-5-30zm-1-1c-22 5-14 37 8 32 21-5 13-37-8-32zm212 18c-2-21 29-23 31-3 1 21-30 23-31 3zm12-18c-22 5-14 38 7 32 21-5 14-37-7-32z"/>
		<path fill="#343A40" d="M103 175c-3-19 25-22 28-4s-26 22-28 4zm11-17c-20 3-15 33 5 30s16-34-5-30z"/>
		<path fill="#099268" stroke="#343A40" stroke-width="2" d="M203 114c1-4 1-6-1-7-13 0-14 0-14 6 0 3 1 3 10 2 2 0 4 1 5-1z"/>
		<path fill="#FAFAFA" d="M104 176c-4-18 22-23 26-6 3 17-23 22-26 6zm-1-1c2 18 31 14 28-4s-31-15-28 4z"/>
		<path fill="#FBFCFE" d="M115 169c-5 2-2 10 3 8s3-10-3-8z"/>
		<path fill="#FAFAFA" d="M115 168c7-3 10 8 4 10-7 2-11-7-4-10zm0-2c-8 3-5 15 3 13 9-2 5-15-3-13z"/>
		<path fill="#616161" d="M115 169c6-2 8 6 3 8s-8-6-3-8zm0-1c-7 3-3 12 4 10 6-2 3-13-4-10z"/>
		<path fill="#FAFAFE" d="M339 171c3 0 3 0 4 1v2l-2 2h-2l-1-2v-2l1-1zm0-1c-5 2-2 9 3 7 4-2 2-10-3-7z"/>
		<path fill="#343A40" d="M338 172v2c0 1 1 1 1 2h2c1-1 2-1 2-2v-2c-1-1-1-1-4-1l-1 1z"/>
		<path fill="#FBFCFE" d="M124 166c-1 1-1 1 0 3 2 2 2 2 4 1 0-2-2-6-4-4zm-18 10c-1 2 0 2 0 3 2 2 2 2 4 2 0-3-2-7-4-5zm18 5c1 0 2 0 3-1 1-2 1-2 1-4-4-1-5 3-4 5zm-18-11c2 1 2 1 3-1 1-1 1-2 1-3-4-2-5 3-4 4zm8 14c0 2 6 2 5-1 0-2-6-2-5 1zm1-22c-3 2 3 3 4 2 2-2-3-4-4-2z"/>
		<path fill="#FAFAFA" d="M340 185c-2 0-1 1-2 1 1 2 4 2 5 0-1 0 0-1-3-1zm-2-25c1 2 4 2 5 0-1 0 0-1-3-1-2 0-1 1-2 1z"/>
		<path fill="#FAFAFE" d="M329 168c1 0 1 1 2-1v-2c-2-1-3 2-2 3zm24 0c0-1-1-3-2-4-1 1-1 1-1 2 1 2 1 2 3 2zm-22 14c0-1 0-1-1-2-1-2 0-1-2-2 0 2 1 5 3 4z"/>
		<path fill="#FAFAFA" d="M350 182c2 1 3-2 2-4-1 1-1 0-2 2 0 1-1 1 0 2zm-5-11h1v-2c-1 0-1 0-1 2zm-10 0h1v-2c-2 0-2 0-1 2z"/>
		<path fill="#FCFCFC" d="M340 168h1v-1c-1-1-2-1-1 1z"/>
		<path fill="#FBFCFE" d="M335 177h1v-1c-1 0-2 0-1 1z"/>
		<path fill="#FAFAFA" d="M341 180v-1h-1v1"/>
		<path fill="#FAFAFE" d="M346 177v-1h-1v1"/>
		<path fill="#343A40" d="M260 145h4.082v9.42H260z"/>
		<path stroke="#343A40" stroke-width="2" d="M161 66c-2 1-9 7-15 13-3 3-4 4-4 8v14c0 3 0 4 3 4 3-1 10-1 13-2 1 0 2 0 3-4 1-5 1-21 2-29 0-2 1-5-2-4z"/>
		<path fill="#FFF9DB" stroke="#343A40" stroke-width="2" d="M62 135c4-1 12-4 14-6 3-3 6-11 6-15-11 0-18 10-21 20 0 1 0 1 1 1z"/>
		<path fill="#099268" d="M228 10V5h265v10H236v120h-8"/>
	</g>
</svg>
