<svg id="Layer_1" data-name="Layer 1" xmlns="http://www.w3.org/2000/svg" viewBox="0 0 521.49 184"><path d="M62.8,4a58,58,0,0,0-58,58h0c0,41.1,57.91,116,57.91,116S120.9,103.1,120.9,62A58.12,58.12,0,0,0,62.8,4Zm-.19,87.2a29,29,0,0,1-29-29c1.57-38.47,56.42-38.46,58,0a29,29,0,0,1-29,29h0" fill="#3cbe72" stroke="#1e4179" stroke-linecap="round" stroke-linejoin="round" stroke-width="9.61"/><path d="M145,5.1h326.4A45.1,45.1,0,0,1,516.5,50.2h0a45.11,45.11,0,0,1-45.1,45.1H285.81" fill="none" stroke="#1e4179" stroke-linecap="round" stroke-linejoin="round" stroke-width="9.97"/><g style="isolation:isolate"><path d="M200.57,50.62v56.91H187.63l0-38.42-5.15,38.42h-9.17L167.86,70l0,37.54H154.9V50.62h19.15q.85,5.13,1.76,12.1l2.1,14.47,3.4-26.57Z" fill="#3cbe72"/><path d="M241,94.21q0,6.36-1.65,9.14a7.29,7.29,0,0,1-5,3.48,57.88,57.88,0,0,1-10.71.7H206.51V50.58h14.84V70.09h2.28A49.54,49.54,0,0,1,234,70.9a8,8,0,0,1,5.26,3.57Q241,77.23,241,83.14Zm-14.84-1.72V84.26c0-2.39-.24-3.84-.72-4.36s-1.84-.81-4.09-.88V97.73a6.93,6.93,0,0,0,3.81-.73C225.83,96.52,226.16,95,226.16,92.49Zm34.7,15H246V50.58h14.83Z" fill="#3cbe72"/></g><g style="isolation:isolate"><path d="M187.62,180.75H172.79V135.32h-4.4v45.43H153.56V124h34.06Z" fill="#3cbe72"/><path d="M193.53,124h24.68v11.35h-9.88v10.76h9.25v10.8h-9.25v12.48h10.86v11.36H193.53Z" fill="#3cbe72"/><path d="M223.45,124h14.9a35.21,35.21,0,0,1,9.3.94,10.33,10.33,0,0,1,4.89,2.74,9.27,9.27,0,0,1,2.21,4.33,38.34,38.34,0,0,1,.58,7.87v4.94q0,5.43-1.12,7.92a7.71,7.71,0,0,1-4.13,3.82,19.58,19.58,0,0,1-7.86,1.33h-4v22.86h-14.8Zm14.8,9.71v14.44l1.09,0a3.42,3.42,0,0,0,2.83-1c.53-.66.79-2.05.79-4.15v-4.66c0-1.94-.31-3.2-.91-3.79S240.17,133.71,238.25,133.71Z" fill="#3cbe72"/><path d="M259.59,124h24.68v11.35h-9.88v10.76h9.24v10.8h-9.24v12.48h10.86v11.36H259.59Z" fill="#3cbe72"/><path d="M289.51,124h14.76a39.23,39.23,0,0,1,10.6,1.08,10.55,10.55,0,0,1,5.82,4.4q2.22,3.32,2.21,10.66,0,5-1.56,6.94t-6.17,3q5.13,1.16,7,3.84t1.83,8.23v5.26q0,5.75-1.32,8.52a7.11,7.11,0,0,1-4.2,3.79q-2.88,1-11.81,1H289.51Zm14.8,9.71v12.61l1.47,0c1.46,0,2.38-.36,2.78-1.07s.6-2.75.6-6.12a10,10,0,0,0-.49-3.73,2.38,2.38,0,0,0-1.29-1.35A11.16,11.16,0,0,0,304.31,133.71Zm0,21.45V171q3.12-.1,4-1c.57-.58.86-2,.86-4.31v-5.29c0-2.43-.26-3.9-.78-4.42S306.51,155.23,304.31,155.16Z" fill="#3cbe72"/><path d="M363.09,157.23q0,8.55-.41,12.11a13.55,13.55,0,0,1-8.28,11,21,21,0,0,1-8.43,1.58,21.53,21.53,0,0,1-8.21-1.49,13.62,13.62,0,0,1-8.49-11,119.75,119.75,0,0,1-.42-12.26v-9.71q0-8.57.4-12.11a13.55,13.55,0,0,1,8.28-11A21,21,0,0,1,346,122.8a21.6,21.6,0,0,1,8.21,1.49,13.64,13.64,0,0,1,5.85,4.47,13.49,13.49,0,0,1,2.64,6.49,119.84,119.84,0,0,1,.42,12.27Zm-14.8-18.65a17.7,17.7,0,0,0-.44-5.07,1.76,1.76,0,0,0-1.81-1.1,2,2,0,0,0-1.78.89c-.41.6-.61,2.36-.61,5.28v26.5a26.09,26.09,0,0,0,.4,6.1,1.76,1.76,0,0,0,1.88,1.15,1.83,1.83,0,0,0,1.94-1.33,28.09,28.09,0,0,0,.42-6.34Z" fill="#3cbe72"/><path d="M394.87,148.58a8.85,8.85,0,0,1,4.82,3.57q1.57,2.46,1.58,11.59,0,6.76-1.55,10.5a11,11,0,0,1-5.34,5.68,21.28,21.28,0,0,1-9.74,2q-6.75,0-10.6-2.26a11,11,0,0,1-5.06-5.54q-1.22-3.28-1.22-11.38v-4.48H382v9.22a14.71,14.71,0,0,0,.44,4.68,1.9,1.9,0,0,0,1.95,1,2.12,2.12,0,0,0,2.18-1.26q.52-1.26.52-6.59v-3.92a11.5,11.5,0,0,0-.73-4.77,3.68,3.68,0,0,0-2.18-2,22.07,22.07,0,0,0-5.59-.54V145.8a28.28,28.28,0,0,0,6.25-.39,2.7,2.7,0,0,0,1.73-1.68,11.62,11.62,0,0,0,.52-4.07v-3.15a8.22,8.22,0,0,0-.61-3.93,2.12,2.12,0,0,0-1.92-.94,2.09,2.09,0,0,0-2,1,10.6,10.6,0,0,0-.54,4.26v4.66H367.76v-4.84q0-8.13,3.73-11t11.85-2.86q10.16,0,13.78,4t3.62,11q0,4.77-1.3,6.88A11.52,11.52,0,0,1,394.87,148.58Z" fill="#3cbe72"/><path d="M439.83,180.75H427.46V154.91l-7.7,25.84h-13V124h12.37v25.62l8.3-25.62h12.37Z" fill="#3cbe72"/><path d="M491.41,124v56.75H478.47l0-38.32-5.15,38.32h-9.17l-5.43-37.44,0,37.44H445.74V124h19.15q.86,5.12,1.76,12.06l2.1,14.44,3.4-26.5Z" fill="#3cbe72"/><path d="M512.54,124l-2.32,42.72h-11L496.93,124Zm-1.16,45.39v11.36H498.09V169.39Z" fill="#3cbe72"/></g></svg>