<svg id="Capa_1" enable-background="new 0 0 512 512" height="512" viewBox="0 0 512 512" width="512" xmlns="http://www.w3.org/2000/svg"><g><g><path d="m484.257 456.655c-7.711 0-15.09-2.942-20.676-8.075-5.588 5.134-12.965 8.075-20.675 8.075-7.711 0-15.09-2.942-20.676-8.075-5.587 5.133-12.965 8.075-20.675 8.075-9.701 0-18.916-4.678-24.651-12.513-.624-.852-1.448-1.005-1.884-1.021-.472-.016-1.185.104-1.76.784-2.671 3.155-7.394 3.548-10.55.878-3.156-2.671-3.549-7.393-.878-10.55 3.423-4.046 8.409-6.275 13.715-6.075 5.356.188 10.254 2.79 13.438 7.139 2.971 4.058 7.552 6.385 12.571 6.385 5.005 0 9.739-2.436 12.662-6.516 1.847-2.58 4.843-4.121 8.013-4.121 3.171 0 6.167 1.541 8.015 4.121 2.922 4.08 7.655 6.516 12.661 6.516 5.005 0 9.739-2.436 12.662-6.516 1.846-2.58 4.842-4.122 8.013-4.122 3.172 0 6.168 1.542 8.016 4.124 2.921 4.078 7.654 6.514 12.66 6.514 5.706 0 10.949-3.117 13.681-8.136 1.977-3.632 6.524-4.974 10.154-2.995 3.632 1.977 4.972 6.523 2.995 10.154-5.357 9.839-15.637 15.95-26.831 15.95z" fill="#3b66c1"/></g><g><path d="m447.173 75.87h-185.328c-34.729 0-62.882 28.153-62.882 62.882v60.636c0 29.735 20.641 54.644 48.376 61.193 4.498 1.062 7.73 4.991 7.73 9.613v34.829c0 3.557 4.301 5.338 6.816 2.823l41.19-41.19c2.808-2.808 6.616-4.385 10.587-4.385h133.512c34.729 0 62.882-28.153 62.882-62.882v-60.636c-.001-34.729-28.154-62.883-62.883-62.883z" fill="#b3e59f"/></g><g><path d="m466.871 79.036c.612 3.302.947 6.702.947 10.181v95.575c0 20.704-16.785 37.489-37.489 37.489h-218.019c-3.185 0-6.302-.282-9.341-.797 7.289 19.409 23.89 34.262 44.37 39.098 4.498 1.062 7.73 4.991 7.73 9.613v34.829c0 3.557 4.301 5.338 6.816 2.823l41.19-41.19c2.808-2.808 6.616-4.385 10.587-4.385h133.512c34.729 0 62.882-28.153 62.882-62.882v-60.636c-.001-27.847-18.108-51.45-43.185-59.718z" fill="#95d6a4"/></g><path d="m369.371 209.523c2.976 0 5.791-1.788 6.958-4.722l28.138-70.745c1.528-3.841-.347-8.195-4.189-9.722-3.838-1.529-8.194.347-9.722 4.189l-28.138 70.746c-2.023 4.78 1.799 10.348 6.953 10.254z" fill="#f9f6f9"/><path d="m435.371 210.262c3.694 1.65 8.2-.017 9.866-3.84l31.099-70.745c2.248-4.734-1.616-10.651-6.853-10.499h-38.918c-4.135 0-7.486 3.351-7.486 7.486s3.351 7.486 7.486 7.486h27.451l-26.485 60.247c-1.665 3.784.055 8.201 3.84 9.865z" fill="#f9f6f9"/><path d="m476.336 135.676c2.248-4.734-1.616-10.651-6.854-10.499h-1.664v29.875z" fill="#dddaec"/><path d="m294.696 188.641h27.842c-.035 4.721-.071 9.253-.106 13.33-.035 4.134 3.288 7.514 7.422 7.55h.065c4.105 0 7.449-3.309 7.485-7.422.021-2.492.062-7.393.107-13.458 4.639.583 9.14-2.605 9.096-7.486.041-4.828-4.386-8.049-8.997-7.486.1-17.097.155-35.565-.056-38.097-.454-5.443-3.71-9.877-8.296-11.297-4.544-1.408-9.389.368-12.963 4.753-3.997 4.904-22.56 38.371-28.155 48.511-2.814 4.753 1.034 11.272 6.556 11.102zm28.035-41.843c.004 6.968-.035 16.737-.095 26.872h-15.222c5.746-10.284 11.366-20.163 15.317-26.872z" fill="#f9f6f9"/><path d="m261.396 164.219c-11.212 16.02-17.904 24.782-21.499 29.489-4.448 5.823-6.289 8.234-5 12.418.753 2.445 2.606 4.321 5.082 5.145.999.333 2.02.675 15.723.675 5.383 0 12.726-.053 22.791-.179 4.134-.052 7.443-3.445 7.39-7.58-.052-4.102-3.393-7.391-7.483-7.391-.032 0-.064 0-.096.001-7.564.095-15.609.155-22.082.162 3.966-5.285 9.627-12.989 17.44-24.154 5.473-8.144 8.667-14.28 9.224-22.387 0-14.109-11.479-25.588-25.589-25.588-12.199 0-22.758 8.678-25.108 20.635-.797 4.057 1.845 7.992 5.902 8.789 4.055.792 7.992-1.845 8.789-5.902.974-4.955 5.354-8.55 10.417-8.55 5.716 0 10.391 4.539 10.609 10.202-.561 4.852-2.815 8.692-6.51 14.215z" fill="#f9f6f9"/><g><g><path d="m316.171 315.399-28.293 28.293c-7.278 7.278-18.758 8.206-27.111 2.193l-19.887-14.318c-40.252-28.978-75.551-64.277-104.529-104.529l-14.318-19.887c-6.013-8.353-5.085-19.833 2.193-27.111l28.293-28.293c8.226-8.226 9.094-21.27 2.03-30.513l-51.699-67.652c-8.883-11.624-25.971-12.761-36.316-2.416l-46.91 46.91c-16.073 16.073-22.9 39.198-18.135 61.423 9.638 44.95 28.348 87.459 54.987 124.925l10.842 15.248c27.763 39.049 61.879 73.164 100.928 100.928l15.248 10.842c37.466 26.639 79.976 45.349 124.925 54.987 22.225 4.765 45.35-2.062 61.423-18.135l46.91-46.91c10.344-10.344 9.207-27.433-2.416-36.316l-67.652-51.699c-9.243-7.064-22.287-6.196-30.513 2.03z" fill="#3b66c1"/></g><g><g><path d="m414.336 365.068-13.58-10.378c-.694.931-1.458 1.828-2.306 2.676l-46.909 46.91c-16.073 16.073-39.198 22.9-61.423 18.135-44.95-9.638-87.459-28.348-124.925-54.987l-15.249-10.842c-39.048-27.763-73.164-61.879-100.928-100.928l-10.842-15.248c-10.002-14.068-18.886-28.848-26.593-44.2 10.539 31.384 25.632 61.124 44.895 88.217l10.841 15.249c27.763 39.048 61.879 73.164 100.928 100.928l15.248 10.842c37.466 26.638 79.976 45.349 124.925 54.987 22.225 4.765 45.35-2.062 61.423-18.135l46.91-46.91c10.346-10.345 9.209-27.434-2.415-36.316z" fill="#30579d"/></g></g><g><g><path d="m407.942 410.194 8.81-8.81c10.344-10.344 9.207-27.433-2.416-36.316l-67.652-51.699c-9.243-7.064-22.287-6.196-30.513 2.03l-13.981 13.981z" fill="#30579d"/></g></g><g><g><path d="m138.539 165.728 13.981-13.981c8.226-8.226 9.094-21.27 2.03-30.513l-51.699-67.652c-8.883-11.624-25.971-12.761-36.316-2.416l-8.81 8.81z" fill="#30579d"/></g></g><g><path d="m414.336 365.068-13.58-10.378c-.694.931-1.458 1.828-2.306 2.676l-25.833 25.833 35.325 26.995 8.81-8.811c10.345-10.344 9.208-27.433-2.416-36.315z" fill="#26457d"/></g></g></g></svg>