<?xml version="1.0" standalone="no"?>
<!DOCTYPE svg PUBLIC "-//W3C//DTD SVG 20010904//EN"
 "http://www.w3.org/TR/2001/REC-SVG-20010904/DTD/svg10.dtd">
<svg version="1.0" xmlns="http://www.w3.org/2000/svg"
 width="736.000000pt" height="736.000000pt" viewBox="0 0 736.000000 736.000000"
 preserveAspectRatio="xMidYMid meet">
<metadata>
Created by potrace 1.14, written by Peter Selinger 2001-2017
</metadata>
<g transform="translate(0.000000,736.000000) scale(0.100000,-0.100000)"
fill="#000000" stroke="none">
<path d="M3519 7356 c-2 -2 -35 -7 -74 -10 -38 -4 -81 -8 -95 -11 -14 -2 -41
-7 -60 -9 -46 -6 -177 -34 -215 -46 -16 -5 -57 -17 -90 -26 -119 -35 -374
-136 -435 -174 -8 -5 -53 -31 -99 -57 -46 -26 -91 -52 -100 -58 -46 -27 -211
-150 -211 -157 0 -4 -4 -8 -10 -8 -5 0 -22 -10 -37 -22 -39 -33 -274 -268
-303 -303 -141 -172 -222 -293 -316 -472 -92 -175 -203 -476 -220 -598 -1 -11
-3 -20 -4 -20 -3 0 -18 -76 -26 -135 -3 -25 -8 -54 -11 -65 -11 -53 -17 -157
-17 -330 -1 -205 6 -280 40 -465 8 -47 24 -121 35 -165 11 -44 23 -93 26 -109
2 -16 9 -41 15 -55 5 -14 12 -36 14 -48 12 -63 155 -467 208 -586 7 -18 33
-77 56 -132 24 -55 54 -125 68 -155 39 -87 247 -506 300 -605 27 -49 65 -121
86 -160 21 -38 41 -74 45 -80 5 -5 21 -35 37 -65 16 -30 31 -57 34 -60 3 -3
16 -25 29 -50 20 -36 133 -226 270 -452 101 -167 543 -844 560 -858 4 -3 23
-30 43 -60 31 -47 129 -187 170 -242 7 -10 36 -49 63 -88 28 -39 75 -103 105
-144 30 -41 64 -86 75 -102 54 -76 105 -131 140 -151 50 -28 135 -26 184 4 36
23 67 58 221 253 28 36 56 72 63 80 7 8 37 49 67 90 30 41 57 77 60 80 3 3 39
52 80 109 41 57 92 127 113 155 20 28 40 58 44 66 4 8 9 17 12 20 4 3 24 32
46 65 22 33 48 68 58 79 9 11 17 25 17 32 0 7 3 14 8 16 10 4 72 97 72 107 0
5 4 11 8 13 4 1 49 68 100 148 50 80 95 150 100 155 4 6 11 17 15 25 4 8 16
29 26 45 109 176 150 245 156 264 3 11 10 21 15 21 4 0 10 8 14 18 3 9 19 40
36 67 16 28 42 73 56 100 15 28 35 62 46 78 11 15 16 27 12 27 -3 0 0 7 7 16
24 30 264 500 346 679 121 264 301 717 328 825 1 3 4 12 8 20 14 37 52 162 79
259 15 58 30 113 33 121 4 16 44 191 51 225 2 11 6 31 9 45 12 58 44 259 50
310 3 30 9 80 12 110 4 30 7 159 7 285 1 280 -4 330 -60 609 -10 51 -58 206
-85 274 -107 269 -239 467 -449 672 -60 58 -114 110 -122 116 -205 161 -392
272 -638 377 -86 36 -317 117 -380 133 -17 4 -58 15 -140 37 -30 8 -68 18 -85
21 -16 3 -73 14 -125 25 -92 19 -123 24 -204 37 -21 3 -48 8 -60 11 -24 6
-302 14 -307 9z m301 -1560 c310 -44 531 -179 676 -412 44 -70 100 -191 107
-230 2 -11 9 -37 15 -59 6 -22 14 -58 18 -80 10 -52 10 -310 1 -355 -5 -19
-10 -48 -13 -65 -17 -99 -86 -255 -158 -355 -38 -53 -158 -180 -171 -180 -3 0
-15 -8 -26 -18 -10 -11 -32 -25 -47 -32 -15 -8 -34 -19 -42 -25 -15 -12 -147
-68 -165 -71 -5 -1 -30 -7 -55 -14 -51 -14 -69 -17 -161 -28 -225 -27 -493 40
-672 169 -100 71 -198 184 -253 290 -16 30 -31 56 -34 59 -11 10 -60 168 -74
235 -29 141 -25 309 9 461 53 232 204 449 400 575 108 69 261 119 410 135 33
3 61 7 62 8 5 4 129 -2 173 -8z"/>
</g>
</svg>
